<svg width="100" height="100" xmlns="http://www.w3.org/2000/svg">
 <!-- Created with UXWing SVG Editor - https://uxwing.com/svg-icon-editor/ -->

 <g>
  <title>background</title>
  <rect fill="none" id="canvas_background" height="102" width="102" y="-1" x="-1"/>
  <g display="none" overflow="visible" y="0" x="0" height="100%" width="100%" id="canvasGrid">
   <rect fill="url(#gridpattern)" stroke-width="0" y="0" x="0" height="100%" width="100%"/>
  </g>
 </g>
 <g>
  <title>Layer 1</title>
  <style transform="matrix(2.007297306204748,0,0,2.007297306204748,0,0) " type="text/css">.st0{fill-rule:evenodd;clip-rule:evenodd;}</style>
  <g stroke="null" id="svg_10">
   <path fill="#333333" id="svg_6" d="m23.943011,15.443035l37.73032,0c2.865061,0 5.469663,1.145368 7.359509,2.996951c1.889846,1.851584 3.058888,4.403438 3.058888,7.210487l0,22.759036c0,2.807049 -1.169042,5.358904 -3.058888,7.210487c-1.889846,1.851584 -4.494448,2.996951 -7.359509,2.996951l-19.728313,0l-15.815356,13.323085c-0.732923,0.617195 -1.841392,0.534108 -2.471348,-0.189902c-0.308913,-0.356075 -0.448226,-0.795238 -0.41794,-1.228454l0.84195,-11.910664l-0.139313,0c-2.865061,0 -5.469663,-1.145368 -7.359509,-2.996951c-1.889846,-1.845649 -3.058888,-4.397503 -3.058888,-7.204553l0,-22.759036c0,-2.807049 1.169042,-5.358904 3.058888,-7.210487c1.883797,-1.851584 4.488388,-2.996951 7.359509,-2.996951l0,0l0,0zm37.724271,3.442038l-37.724271,0c-1.895905,0 -3.622211,0.759629 -4.876053,1.988083c-1.253841,1.228454 -2.029159,2.913865 -2.029159,4.777318l0,22.759036c0,1.857518 0.775318,3.548863 2.029159,4.777318c1.253841,1.228454 2.980147,1.988083 4.876053,1.988083l2.0231,0l0,0.005935l0.115086,0.005924c0.963096,0.065282 1.696019,0.884259 1.629387,1.827845l-0.684459,9.649603l13.047214,-10.990807c0.314983,-0.308597 0.751102,-0.498499 1.235674,-0.498499l20.358269,0c1.895905,0 3.6222,-0.759629 4.876042,-1.988083c1.253841,-1.228454 2.02917,-2.919799 2.02917,-4.777318l0,-22.759036c0,-1.857518 -0.775329,-3.548863 -2.02917,-4.777318c-1.253841,-1.228454 -2.980136,-1.988083 -4.876042,-1.988083l0,0l0,0z" class="st0"/>
   <path stroke="null" fill="#23585e" id="svg_9" d="m54.495316,30.894594c2.713629,0 4.912388,2.154246 4.912388,4.812926c0,2.65868 -2.198759,4.812926 -4.912388,4.812926c-2.713629,0 -4.912398,-2.154246 -4.912398,-4.812926c0,-2.65868 2.19877,-4.812926 4.912398,-4.812926l0,0zm-17.826359,0c2.713629,0 4.912398,2.154246 4.912398,4.812926c0,2.65868 -2.19877,4.812926 -4.912398,4.812926s-4.912388,-2.154246 -4.912388,-4.812926c0,-2.65868 2.198759,-4.812926 4.912388,-4.812926l0,0zm49.566109,1.93467c2.998315,32.574791 1.853511,35.073243 0,36.883284c-1.847451,1.81004 -4.397529,2.937604 -7.208076,2.937604l-0.369486,0l0.860129,12.13024l0,0c0.024227,0.379815 -0.090859,0.771499 -0.363437,1.080096c-0.551205,0.634999 -1.526419,0.706216 -2.168483,0.166163l-15.875929,-13.768172l-20.927641,0l10.303299,-10.266786l21.830175,0l8.661793,-31.251391z" class="st0"/>
  </g>
 </g>
</svg>