<svg width="100" height="100" xmlns="http://www.w3.org/2000/svg">

 <g>
  <title>background</title>
  <rect fill="none" id="canvas_background" height="102" width="102" y="-1" x="-1"/>
 </g>
 <g>
  <title>Layer 1</title>
  <path fill="#333333" stroke="null" id="svg_2" d="m60.201133,46.721826zm20.78637,-22.82888c-1.00713,0.77346 -2.67466,0.79726 -3.73131,0.0833c-1.07317,-0.72586 -1.10619,-1.9277 -0.11557,-2.68926l7.281,-5.58673c1.00713,-0.77346 2.68291,-0.79726 3.73131,-0.0833c1.07317,0.72586 1.10619,1.92769 0.11557,2.68925l-7.281,5.58674l0,0l0,0l0,0zm-32.41782,-0.39268c1.07317,0.72586 1.10619,1.93364 0.11557,2.68925c-1.00712,0.77346 -2.68291,0.79726 -3.73131,0.0833l-7.7598,-5.24761c-1.06491,-0.73181 -1.09793,-1.93364 -0.11557,-2.68925c1.00712,-0.77346 2.68291,-0.79726 3.73131,-0.0833l7.7598,5.24761l0,0l0,0zm16.28733,-4.57529c0.04128,1.04714 -1.10618,1.92769 -2.55083,1.96339s-2.67465,-0.79726 -2.72418,-1.83845l-0.32195,-7.65723c-0.04953,-1.04119 1.10618,-1.92769 2.55083,-1.96339c1.4529,-0.02974 2.67465,0.79726 2.71593,1.83845l0.3302,7.65723l0,0l0,0zm10.88849,28.17168c-1.07316,-0.72586 -1.10618,-1.93364 -0.11557,-2.68925c1.00712,-0.77346 2.67466,-0.79726 3.73131,-0.0833l7.75155,5.24761c1.07316,0.72586 1.10618,1.92769 0.11557,2.68925c-1.00712,0.77346 -2.67466,0.79726 -3.73131,0.0833l-7.75155,-5.24761l0,0l0,0zm9.47687,-11.28057c-1.44465,0.03569 -2.67466,-0.79726 -2.72419,-1.83845c-0.04127,-1.04119 1.10619,-1.92769 2.55083,-1.96339l10.61607,-0.25584c1.44465,-0.0357 2.67466,0.79726 2.72419,1.83845s-1.10619,1.92769 -2.55083,1.96339l-10.61607,0.25584l0,0l0,0z"/>
  <path fill="#23585e" stroke="null" id="svg_3" d="m33.181083,47.001462c-0.03302,-0.07139 -0.06605,-0.16659 -0.08256,-0.24988c-0.18161,-1.12449 -0.35497,-2.36797 -0.51181,-3.43891c-0.21464,-1.57071 -0.45403,-3.38536 -0.62739,-4.65859c-0.11557,-0.8627 -0.49531,-1.68376 -1.0484,-2.29657c-0.37148,-0.39268 -0.78424,-0.68422 -1.24652,-0.82701c-0.37148,-0.10709 -0.82551,-0.11899 -1.29605,0.0119c-0.6439,0.17849 -1.3621,0.55332 -2.16284,1.20778c-0.70994,0.58307 -1.26303,1.36248 -1.72532,2.18948c-0.65215,1.20779 -1.04014,2.49291 -1.19699,3.37347c-0.01651,0.05949 -0.01651,0.10709 -0.04953,0.15469l-4.44125,18.17029c-0.06604,0.23798 -0.19812,0.45217 -0.39625,0.61876c-1.49417,1.38628 -2.43525,2.57621 -2.70767,3.54006c-0.19812,0.70801 0,1.27917 0.65215,1.7254l16.34512,11.78034c1.04014,0.71991 2.24539,1.17209 3.69003,1.36248c1.57673,0.21419 3.41762,0.09519 5.53093,-0.32128c0.03302,0 0.08255,-0.0119 0.11557,-0.0119c0.80074,-0.15469 1.84914,-0.33913 2.85627,-0.52357c4.38346,-0.76751 8.20557,-1.44577 11.74702,-3.76614l4.55682,-3.42701c0.04127,-0.0595 0.11557,-0.1071 0.18161,-0.15469s0.51182,-0.36888 1.11444,-0.77941c3.12043,-2.19543 6.97557,-4.90848 4.63112,-7.2824l-1.82438,-1.31487c-0.8833,0.61876 -1.82438,1.21968 -2.72419,1.7968c-0.82551,0.52357 -1.59324,1.00549 -2.29492,1.51716c-0.75122,0.54142 -1.96472,0.54142 -2.72419,0c-0.75121,-0.54737 -0.75121,-1.41602 0,-1.96339c0.70994,-0.51167 1.57673,-1.06499 2.47654,-1.64211c3.08741,-1.96339 6.62885,-4.20641 4.73017,-6.17575l-1.80786,-1.30298c-0.09907,-0.0714 -0.18162,-0.15469 -0.25591,-0.23799c-1.04015,0.76751 -2.17935,1.49932 -3.30205,2.21328c-0.82551,0.52357 -1.59323,1.00549 -2.29492,1.51716c-0.75121,0.54142 -1.96471,0.54142 -2.72418,0s-0.75122,-1.41602 0,-1.96339c0.70994,-0.51167 1.57672,-1.06499 2.47653,-1.64211c3.08741,-1.96339 6.62885,-4.20641 4.73018,-6.17575l-1.80787,-1.30298c-0.13208,-0.09519 -0.23114,-0.18444 -0.3137,-0.29748l-5.29978,3.81968c-0.75121,0.54142 -1.96471,0.54142 -2.72418,0s-0.75122,-1.41602 0,-1.96339l14.2153,-10.26318c2.37747,-1.7135 2.9223,-3.4984 2.29492,-4.84898c-0.23115,-0.49382 -0.61088,-0.93409 -1.08142,-1.27323s-1.08142,-0.61281 -1.7666,-0.7794c-1.84914,-0.44028 -4.31742,-0.0357 -6.76093,1.7254l-24.93043,17.968c-0.75122,0.54142 -1.96472,0.54142 -2.72419,0s-0.75121,-1.41602 0,-1.96339l2.53432,-1.82655l-0.02476,-0.01785l0,0l0,0zm28.91764,-2.48696c0.14034,0.0595 0.28068,0.1309 0.41276,0.22609l1.89042,1.36247c0.09906,0.0714 0.19812,0.1666 0.28067,0.24989c2.12157,2.09428 1.79136,3.96248 0.34672,5.66409c0.25591,0.07139 0.51181,0.17254 0.70994,0.32128l1.89042,1.36247c0.09906,0.0714 0.19812,0.16659 0.28067,0.24989c2.27841,2.26087 1.70881,4.23616 0,6.03296c0.08255,0.02975 0.14034,0.0833 0.23114,0.1428l1.89042,1.36247c0.09907,0.0714 0.19813,0.16659 0.28068,0.24989c4.38346,4.31946 -0.84202,7.98445 -5.03562,10.94144l-1.08142,0.7794l-4.68065,3.54006l-0.14859,0.10114c-4.2844,2.8023 -8.52753,3.55195 -13.43932,4.41466c-0.82551,0.14279 -1.65102,0.29748 -2.80673,0.51167c-0.03302,0 -0.04953,0.0119 -0.08255,0.0119c-2.65815,0.52357 -5.06864,0.64851 -7.23148,0.36888c-2.19586,-0.28559 -4.10279,-0.9936 -5.69603,-2.11809l-16.36162,-11.78629c-1.65102,-1.14829 -2.22063,-2.56431 -1.75009,-4.24806c0.35497,-1.34463 1.44465,-2.838 3.1452,-4.44441l4.37521,-17.81331l0,-0.07139c0.19812,-1.0174 0.6439,-2.52266 1.41162,-3.97438c0.58612,-1.08879 1.37861,-2.15378 2.41049,-3.01648c1.24653,-1.0174 2.47654,-1.64211 3.69004,-1.97529c1.49417,-0.41053 2.92231,-0.35698 4.18534,0.03569c1.18048,0.35698 2.17935,1.0055 2.93882,1.8325c0.92457,0.9936 1.52719,2.26088 1.6923,3.5817c0.13208,1.08879 0.39624,2.88559 0.64389,4.64669l0.19813,1.46957l18.9042,-13.63664c3.63225,-2.61785 7.56168,-3.13548 10.70687,-2.39177c1.26304,0.29749 2.37748,0.79131 3.30205,1.45767s1.60975,1.46957 2.0225,2.37987c1.04014,2.26087 0.3302,5.13456 -3.236,7.70482l-6.26563,4.5158l-0.02477,-0.04165l0,0l0,0z"/>
 </g>
</svg>