<svg width="100" height="100" xmlns="http://www.w3.org/2000/svg">
 <!-- Created with UXWing SVG Editor - https://uxwing.com/svg-icon-editor/ -->

 <g>
  <title>background</title>
  <rect fill="none" id="canvas_background" height="102" width="102" y="-1" x="-1"/>
  <g display="none" overflow="visible" y="0" x="0" height="100%" width="100%" id="canvasGrid">
   <rect fill="url(#gridpattern)" stroke-width="0" y="0" x="0" height="100%" width="100%"/>
  </g>
 </g>
 <g>
  <title>Layer 1</title>
  <!-- Created with UXWing SVG Editor - https://uxwing.com/svg-icon-editor/ -->
  <g stroke="null" id="svg_36">
   <g stroke="null" transform="matrix(1.8641471304127477,0,0,2.8325089265569634,264.3784036701948,100.75026773423662) " id="svg_32">
    <title stroke="null" transform="translate(0.00010027114331023768,0) translate(1.609323263168335,0) translate(1.6095666885375977,0) translate(1.6091370582580566,0) translate(-0.00017803243827074766,0) translate(3.2189226150512695,0) translate(5.900866985321045,0) translate(5.900300025939941,0) translate(0.000482938572531566,0) translate(-0.0001862178323790431,0) translate(-23.066547393798828,0) translate(0.08929043263196945,0) translate(-0.08940631151199341,0) translate(-0.08940631151199341,0) translate(-0.08940631151199341,0) translate(-0.08940631151199341,0) translate(-0.08940631151199341,0) translate(-0.08940631151199341,0) translate(-0.08940631151199341,0) translate(-0.08940631151199341,0) translate(-0.08940631151199341,0) translate(-0.08940631151199341,0) translate(-0.08940631151199341,0) translate(-0.08940631151199341,0) translate(-0.08940631151199341,0) translate(-0.08940631151199341,0) translate(-0.08940631151199341,0) translate(-0.08940631151199341,0) translate(-0.08940631151199341,0) translate(-0.08940631151199341,0) translate(-0.08940631151199341,0) translate(-0.08940631151199341,0) translate(-0.08940631151199341,0) translate(-0.08940631151199341,0) translate(-0.08940631151199341,0) translate(-0.08940631151199341,0) translate(-0.08940631151199341,0) translate(-0.08940631151199341,0) translate(15.109667778015137,-0.5884060263633728) translate(-0.00013505909009836614,0) translate(0.00020054228662047535,0) translate(-0.00013505909009836614,0) translate(-0.00013505909009836614,0) translate(-0.00013505909009836614,0) translate(0.17918658256530762,0) translate(-2.842170943040401e-14,-0.05884059891104698) translate(0.08940631151199341,0) translate(0.08940631151199341,0) translate(0.08940631151199341,0) translate(0.08940631151199341,0) translate(0.08940631151199341,0) translate(0.08940631151199341,0) translate(0.08940631151199341,0) translate(0.08940631151199341,0) translate(0.08940631151199341,0) translate(0.08940631151199341,0) translate(0.08940631151199341,0) translate(0.08940631151199341,0) translate(0.08940631151199341,0) translate(0.08940631151199341,0) translate(0.08940631151199341,0) translate(0.08940631151199341,0) translate(0.08940631151199341,0) translate(0.08940631151199341,0) translate(0.08940631151199341,0) translate(0.08940631151199341,0) translate(0.08940631151199341,0) translate(0.08940631151199341,0) translate(0.08940631151199341,0) translate(0.08940631151199341,0) translate(0.08940631151199341,0) translate(0.08940631151199341,0) translate(0.08940631151199341,0) translate(0.08940631151199341,0) translate(-0.00018212513532489538,0) translate(-0.00018212513532489538,0) translate(-4.8278489112854,0) translate(-10.728466033935547,0) translate(-0.00037038931623101234,0) translate(0.00030081343720667064,0) translate(1.609187126159668,0) translate(9.387537956237793,0) translate(0.08940631151199341,0) translate(0.08940631151199341,0) translate(0.08940631151199341,0) translate(0.08940631151199341,0) translate(0.08940631151199341,0) translate(0.08940631151199341,0) translate(0.08940631151199341,0) translate(0.08940631151199341,0) translate(0.08940631151199341,0) translate(0.08940631151199341,0) translate(0.08940631151199341,0) translate(0.08940631151199341,0) translate(0.08940631151199341,0) translate(0.08940631151199341,0) translate(0.08940631151199341,0) translate(0.08940631151199341,0) translate(0.08940631151199341,0) translate(0.08940631151199341,0) translate(0.08940631151199341,0) translate(0.08940631151199341,0) translate(0.08940631151199341,0) translate(-0.00013505909009836614,0) translate(-1.6090223789215088,0) translate(-4.828029155731201,0) translate(-12.33821964263916,0) translate(-0.00013812861288897693,0) translate(5.901122570037842,0) translate(10.728862762451172,0) translate(13.947454452514648,0) translate(7.510190010070801,0) translate(10.728628158569336,0) translate(15.556760787963867,0) translate(9.119402885437012,0) translate(18.238649368286133,0) translate(15.556982040405273,0) translate(23.066980361938477,0) translate(-0.00020463498367462307,0) translate(-19.84813690185547,0) translate(-39.69643783569336,0) translate(-21.457489013671875,0) translate(-50.42538833618164,0) translate(-1.6094056367874146,0) translate(-3.218520402908325,0) translate(0.00010979946091538295,0) translate(5.900683879852295,0) translate(-0.08940631151199341,0) translate(-0.08940631151199341,0) translate(-0.08940631151199341,0) translate(-0.08940631151199341,0) translate(-0.08940631151199341,0) translate(-0.08940631151199341,0) translate(-0.08940631151199341,0) translate(-0.08940631151199341,0) translate(-0.08940631151199341,0) translate(-0.08940631151199341,0) translate(-0.08940631151199341,0) translate(-0.08940631151199341,0) translate(-0.08940631151199341,0) translate(-0.08940631151199341,0) translate(-0.08940631151199341,0) translate(-0.08940631151199341,0) translate(-0.08940631151199341,0) translate(-0.08940631151199341,0) translate(-0.08940631151199341,0) translate(-0.08940631151199341,0) translate(-0.08940631151199341,0) translate(-0.08940631151199341,0) translate(-0.08940631151199341,0) translate(-0.08940631151199341,0) translate(-0.08940631151199341,0) translate(-0.08940631151199341,0) translate(-0.08940631151199341,0) translate(-0.08940631151199341,0) translate(-0.08940631151199341,0) translate(-0.08940631151199341,0) translate(0,-0.35304391384124756) translate(0.7875551581382751,0) translate(0.7875551581382751,0) translate(0.7875551581382751,0) translate(0.7875551581382751,0) translate(0.7875551581382751,0) translate(0.7875551581382751,0) translate(0.7875551581382751,0) translate(-0.7875551581382751,0) translate(-0.7875551581382751,0) translate(-0.7875551581382751,0) translate(-0.7875551581382751,0) translate(-0.7875551581382751,0) translate(-0.7875551581382751,0) translate(-0.7875551581382751,0) translate(-0.7875551581382751,0) translate(-0.7875551581382751,0) translate(-0.7875551581382751,0) translate(-0.7875551581382751,0) translate(-0.7875551581382751,0) translate(-0.7875551581382751,0) translate(-0.7875551581382751,0) translate(0,-0.00037709157913923264) translate(0,1.0593310594558716) translate(0,1.059164047241211) translate(0,3.1772847175598145) translate(0,0.00026396408793516457) translate(0,1.0588488578796387) translate(0,1.0590509176254272) translate(0,2.118589401245117) translate(0,3.8834264278411865) translate(0,3.883420944213867) translate(0,-0.00006195075548021123) translate(0,-3.8835394382476807) translate(0,-3.1773087978363037) translate(0,-4.94272518157959) translate(0,-12.003281593322754) translate(0,-1.0587478876113892) translate(-0.000051448372687445953,0) translate(7.088205337524414,0) translate(0.00020917330402880907,0) translate(7.087795257568359,0) translate(2.3627750873565674,0) translate(-2.3628666400909424,0) translate(-7.087787628173828,0) translate(-8.663487434387207,0) translate(-2.362349510192871,0) translate(-22.83888816833496,0) translate(-2.3630919456481934,0) translate(4.725517272949219,0) translate(18.1137752532959,0) translate(7.087926387786865,0) translate(13.388236045837402,0) translate(2.2021915912628174,0) translate(-20.4764347076416,9.379981994628906) translate(4.725330829620361,21.784549713134766) translate(10.2382173538208,11.136716842651367) translate(-1.4210854715202004e-14,-0.00010505943646421656) translate(-29.385974884033203,0) translate(-1.4210854715202004e-14,-2.2951433658599854) translate(-1.4210854715202004e-14,-0.49211838841438293) translate(-1.4210854715202004e-14,2.295088291168213) translate(-1.4210854715202004e-14,6.557494640350342) translate(-1.4210854715202004e-14,4.262241363525391) translate(-1.4210854715202004e-14,0.49201834201812744) translate(-1.4210854715202004e-14,-4.262576580047607) translate(-1.4210854715202004e-14,-0.49161311984062195) translate(-1.4210854715202004e-14,-2.7865114212036133) translate(-1.4210854715202004e-14,-7.5411810874938965) translate(-1.4210854715202004e-14,-2.294938325881958) translate(-1.4210854715202004e-14,-3.278985023498535) translate(-1.4210854715202004e-14,-5.573725700378418) translate(-1.4210854715202004e-14,-3.7700326442718506) translate(-1.4210854715202004e-14,-2.7870242595672607) translate(-1.4210854715202004e-14,-1.8031694889068604) translate(-1.4210854715202004e-14,-0.9839791655540466) translate(-1.4210854715202004e-14,-1.4749844074249268) translate(-1.4210854715202004e-14,-8.852838516235352) translate(-1.4210854715202004e-14,-14.589627265930176) translate(-1.4210854715202004e-14,-8.852487564086914) translate(-1.4210854715202004e-14,-7.048867702484131) translate(-1.4210854715202004e-14,-8.36097240447998) translate(-1.4210854715202004e-14,-8.852527618408203) translate(-1.4210854715202004e-14,-6.065216064453125) translate(-1.4210854715202004e-14,-3.77046799659729) translate(-1.4210854715202004e-14,-0.49167314171791077) translate(-1.4210854715202004e-14,2.2951583862304688) translate(-1.4210854715202004e-14,6.557189464569092) translate(-1.4210854715202004e-14,16.393535614013672) translate(-1.4210854715202004e-14,0.5024067163467407) translate(-0.0001690999633865431,0) translate(-0.5732663869857788,0) translate(-0.5728144645690918,0) translate(-0.0006005964241921902,0) translate(-0.5726978182792664,0) translate(-1.7197757959365845,0) translate(-0.5732313990592957,0) translate(-2.6751351356506348,0) translate(-7.6424174308776855,0) translate(-0.5736687183380127,0) translate(-1.146314024925232,0) translate(-0.572976291179657,0) translate(-0.0004329541989136487,0) translate(-2.101790189743042,0) translate(-5.5406012535095215,0) translate(-4.394942283630371,0) translate(-3.8212785720825195,0) translate(-1.1463749408721924,0) translate(-0.5730444192886353,0) translate(-0.573599100112915,0) translate(-1.1465721130371094,0) translate(-1.7194359302520752,0) translate(-1.7194138765335083,0) translate(-2.1018002033233643,0) translate(-0.5731054544448853,0) translate(-1.1464215517044067,0) translate(-1.1468520164489746,0) translate(-2.101780652999878,0) translate(-3.821636438369751,0) translate(-2.674664258956909,0) translate(-2.101686477661133,0) translate(-2.101921319961548,0) translate(-2.1018264293670654,0) translate(-1.146567702293396,0) translate(-2.1014926433563232,0) translate(-2.101728916168213,0) translate(-2.6750621795654297,0) translate(-2.6748464107513428,0) translate(-2.1022040843963623,0) translate(-1.7193763256072998,0) translate(-2.101752281188965,0) translate(-1.7195920944213867,0) translate(-1.1464773416519165,0) translate(-1.719673752784729,0) translate(-1.7199857234954834,0) translate(-1.1462032794952393,0) translate(-1.1463024616241455,0) translate(-1.1464015245437622,0) translate(-0.5730710029602051,0) translate(-0.5736220479011536,0) translate(0.00025948096299543977,0) translate(-1.1462674140930176,0) translate(-1.146363615989685,0) translate(-1.1467951536178589,0) translate(-1.146561861038208,0) translate(-0.5728932023048401,0) translate(-0.5734471082687378,0) translate(-1.1460895538330078,0) translate(-0.0003323688870295882,0) translate(-1.7192859649658203,0) translate(-2.675429582595825,0) translate(-7.069620609283447,0) translate(0.00034986197715625167,0) translate(0.5731147527694702,0) translate(-0.00009912756650010124,0) translate(1.1464277505874634,0) translate(0.573091447353363,0) translate(1.1467427015304565,0) translate(0.5730739235877991,0) translate(1.146386981010437,0) translate(0.5730564594268799,0) translate(0.5736104249954224,0) translate(-0.00027405854780226946,0) translate(1.14658522605896,0) translate(-0.00017493098857812583,0) translate(1.7194492816925049,0) translate(0.5538315176963806,0) translate(-0.1910713016986847,0) translate(-0.1910713016986847,0) translate(-0.1910713016986847,0) translate(-0.1910713016986847,0) translate(-0.1910713016986847,0) translate(-0.1910713016986847,0) translate(-0.1910713016986847,0) translate(-0.1910713016986847,0) translate(-0.1910713016986847,0) translate(-0.1910713016986847,0) translate(-0.1910713016986847,0) translate(-0.1910713016986847,0) translate(-0.1910713016986847,0) translate(-0.1910713016986847,0) translate(-0.1910713016986847,0) translate(-0.1910713016986847,0) translate(-1.4210854715202004e-14,-0.16393274068832397) translate(-1.4210854715202004e-14,-0.16393274068832397) translate(-1.4210854715202004e-14,-0.16393274068832397) translate(-1.4210854715202004e-14,-0.16393274068832397) translate(-1.4210854715202004e-14,-0.16393274068832397) translate(-1.4210854715202004e-14,-0.16393274068832397) translate(-1.4210854715202004e-14,-0.16393274068832397) translate(-1.4210854715202004e-14,-0.16393274068832397) translate(-1.4210854715202004e-14,-0.16393274068832397) translate(-1.4210854715202004e-14,-0.16393274068832397) translate(-1.4210854715202004e-14,-0.16393274068832397) translate(-1.4210854715202004e-14,-0.16393274068832397) translate(-1.4210854715202004e-14,-0.16393274068832397) translate(-1.4210854715202004e-14,-0.16393274068832397) translate(-1.4210854715202004e-14,-0.16393274068832397) translate(-1.4210854715202004e-14,-0.16393274068832397) translate(-4.611603736877441,0) translate(0,-5.6934309005737305) ">background</title>
    <rect stroke="null" x="-139.86822" y="-43.147692" width="52" height="52" id="svg_30" fill="none"/>
    <g stroke="null" id="svg_29" display="none">
     <rect stroke="null" id="svg_33" width="512" height="512" x="-138.86822" y="-42.147692" stroke-width="0" fill="url(#gridpattern)"/>
    </g>
   </g>
   <g stroke="null" transform="matrix(1.8641471304127477,0,0,2.8325089265569634,264.3784036701948,100.75026773423662) " id="svg_34">
    <title stroke="null" transform="translate(0.00010027114331023768,0) translate(1.609323263168335,0) translate(1.6095666885375977,0) translate(1.6091370582580566,0) translate(-0.00017803243827074766,0) translate(3.2189226150512695,0) translate(5.900866985321045,0) translate(5.900300025939941,0) translate(0.000482938572531566,0) translate(-0.0001862178323790431,0) translate(-23.066547393798828,0) translate(0.08929043263196945,0) translate(-0.08940631151199341,0) translate(-0.08940631151199341,0) translate(-0.08940631151199341,0) translate(-0.08940631151199341,0) translate(-0.08940631151199341,0) translate(-0.08940631151199341,0) translate(-0.08940631151199341,0) translate(-0.08940631151199341,0) translate(-0.08940631151199341,0) translate(-0.08940631151199341,0) translate(-0.08940631151199341,0) translate(-0.08940631151199341,0) translate(-0.08940631151199341,0) translate(-0.08940631151199341,0) translate(-0.08940631151199341,0) translate(-0.08940631151199341,0) translate(-0.08940631151199341,0) translate(-0.08940631151199341,0) translate(-0.08940631151199341,0) translate(-0.08940631151199341,0) translate(-0.08940631151199341,0) translate(-0.08940631151199341,0) translate(-0.08940631151199341,0) translate(-0.08940631151199341,0) translate(-0.08940631151199341,0) translate(-0.08940631151199341,0) translate(15.109667778015137,-0.5884060263633728) translate(-0.00013505909009836614,0) translate(0.00020054228662047535,0) translate(-0.00013505909009836614,0) translate(-0.00013505909009836614,0) translate(-0.00013505909009836614,0) translate(0.17918658256530762,0) translate(-2.842170943040401e-14,-0.05884059891104698) translate(0.08940631151199341,0) translate(0.08940631151199341,0) translate(0.08940631151199341,0) translate(0.08940631151199341,0) translate(0.08940631151199341,0) translate(0.08940631151199341,0) translate(0.08940631151199341,0) translate(0.08940631151199341,0) translate(0.08940631151199341,0) translate(0.08940631151199341,0) translate(0.08940631151199341,0) translate(0.08940631151199341,0) translate(0.08940631151199341,0) translate(0.08940631151199341,0) translate(0.08940631151199341,0) translate(0.08940631151199341,0) translate(0.08940631151199341,0) translate(0.08940631151199341,0) translate(0.08940631151199341,0) translate(0.08940631151199341,0) translate(0.08940631151199341,0) translate(0.08940631151199341,0) translate(0.08940631151199341,0) translate(0.08940631151199341,0) translate(0.08940631151199341,0) translate(0.08940631151199341,0) translate(0.08940631151199341,0) translate(0.08940631151199341,0) translate(-0.00018212513532489538,0) translate(-0.00018212513532489538,0) translate(-4.8278489112854,0) translate(-10.728466033935547,0) translate(-0.00037038931623101234,0) translate(0.00030081343720667064,0) translate(1.609187126159668,0) translate(9.387537956237793,0) translate(0.08940631151199341,0) translate(0.08940631151199341,0) translate(0.08940631151199341,0) translate(0.08940631151199341,0) translate(0.08940631151199341,0) translate(0.08940631151199341,0) translate(0.08940631151199341,0) translate(0.08940631151199341,0) translate(0.08940631151199341,0) translate(0.08940631151199341,0) translate(0.08940631151199341,0) translate(0.08940631151199341,0) translate(0.08940631151199341,0) translate(0.08940631151199341,0) translate(0.08940631151199341,0) translate(0.08940631151199341,0) translate(0.08940631151199341,0) translate(0.08940631151199341,0) translate(0.08940631151199341,0) translate(0.08940631151199341,0) translate(0.08940631151199341,0) translate(-0.00013505909009836614,0) translate(-1.6090223789215088,0) translate(-4.828029155731201,0) translate(-12.33821964263916,0) translate(-0.00013812861288897693,0) translate(5.901122570037842,0) translate(10.728862762451172,0) translate(13.947454452514648,0) translate(7.510190010070801,0) translate(10.728628158569336,0) translate(15.556760787963867,0) translate(9.119402885437012,0) translate(18.238649368286133,0) translate(15.556982040405273,0) translate(23.066980361938477,0) translate(-0.00020463498367462307,0) translate(-19.84813690185547,0) translate(-39.69643783569336,0) translate(-21.457489013671875,0) translate(-50.42538833618164,0) translate(-1.6094056367874146,0) translate(-3.218520402908325,0) translate(0.00010979946091538295,0) translate(5.900683879852295,0) translate(-0.08940631151199341,0) translate(-0.08940631151199341,0) translate(-0.08940631151199341,0) translate(-0.08940631151199341,0) translate(-0.08940631151199341,0) translate(-0.08940631151199341,0) translate(-0.08940631151199341,0) translate(-0.08940631151199341,0) translate(-0.08940631151199341,0) translate(-0.08940631151199341,0) translate(-0.08940631151199341,0) translate(-0.08940631151199341,0) translate(-0.08940631151199341,0) translate(-0.08940631151199341,0) translate(-0.08940631151199341,0) translate(-0.08940631151199341,0) translate(-0.08940631151199341,0) translate(-0.08940631151199341,0) translate(-0.08940631151199341,0) translate(-0.08940631151199341,0) translate(-0.08940631151199341,0) translate(-0.08940631151199341,0) translate(-0.08940631151199341,0) translate(-0.08940631151199341,0) translate(-0.08940631151199341,0) translate(-0.08940631151199341,0) translate(-0.08940631151199341,0) translate(-0.08940631151199341,0) translate(-0.08940631151199341,0) translate(-0.08940631151199341,0) translate(0,-0.35304391384124756) translate(0.7875551581382751,0) translate(0.7875551581382751,0) translate(0.7875551581382751,0) translate(0.7875551581382751,0) translate(0.7875551581382751,0) translate(0.7875551581382751,0) translate(0.7875551581382751,0) translate(-0.7875551581382751,0) translate(-0.7875551581382751,0) translate(-0.7875551581382751,0) translate(-0.7875551581382751,0) translate(-0.7875551581382751,0) translate(-0.7875551581382751,0) translate(-0.7875551581382751,0) translate(-0.7875551581382751,0) translate(-0.7875551581382751,0) translate(-0.7875551581382751,0) translate(-0.7875551581382751,0) translate(-0.7875551581382751,0) translate(-0.7875551581382751,0) translate(-0.7875551581382751,0) translate(0,-0.00037709157913923264) translate(0,1.0593310594558716) translate(0,1.059164047241211) translate(0,3.1772847175598145) translate(0,0.00026396408793516457) translate(0,1.0588488578796387) translate(0,1.0590509176254272) translate(0,2.118589401245117) translate(0,3.8834264278411865) translate(0,3.883420944213867) translate(0,-0.00006195075548021123) translate(0,-3.8835394382476807) translate(0,-3.1773087978363037) translate(0,-4.94272518157959) translate(0,-12.003281593322754) translate(0,-1.0587478876113892) translate(-0.000051448372687445953,0) translate(7.088205337524414,0) translate(0.00020917330402880907,0) translate(7.087795257568359,0) translate(2.3627750873565674,0) translate(-2.3628666400909424,0) translate(-7.087787628173828,0) translate(-8.663487434387207,0) translate(-2.362349510192871,0) translate(-22.83888816833496,0) translate(-2.3630919456481934,0) translate(4.725517272949219,0) translate(18.1137752532959,0) translate(7.087926387786865,0) translate(13.388236045837402,0) translate(2.2021915912628174,0) translate(-20.4764347076416,9.379981994628906) translate(4.725330829620361,21.784549713134766) translate(10.2382173538208,11.136716842651367) translate(-1.4210854715202004e-14,-0.00010505943646421656) translate(-29.385974884033203,0) translate(-1.4210854715202004e-14,-2.2951433658599854) translate(-1.4210854715202004e-14,-0.49211838841438293) translate(-1.4210854715202004e-14,2.295088291168213) translate(-1.4210854715202004e-14,6.557494640350342) translate(-1.4210854715202004e-14,4.262241363525391) translate(-1.4210854715202004e-14,0.49201834201812744) translate(-1.4210854715202004e-14,-4.262576580047607) translate(-1.4210854715202004e-14,-0.49161311984062195) translate(-1.4210854715202004e-14,-2.7865114212036133) translate(-1.4210854715202004e-14,-7.5411810874938965) translate(-1.4210854715202004e-14,-2.294938325881958) translate(-1.4210854715202004e-14,-3.278985023498535) translate(-1.4210854715202004e-14,-5.573725700378418) translate(-1.4210854715202004e-14,-3.7700326442718506) translate(-1.4210854715202004e-14,-2.7870242595672607) translate(-1.4210854715202004e-14,-1.8031694889068604) translate(-1.4210854715202004e-14,-0.9839791655540466) translate(-1.4210854715202004e-14,-1.4749844074249268) translate(-1.4210854715202004e-14,-8.852838516235352) translate(-1.4210854715202004e-14,-14.589627265930176) translate(-1.4210854715202004e-14,-8.852487564086914) translate(-1.4210854715202004e-14,-7.048867702484131) translate(-1.4210854715202004e-14,-8.36097240447998) translate(-1.4210854715202004e-14,-8.852527618408203) translate(-1.4210854715202004e-14,-6.065216064453125) translate(-1.4210854715202004e-14,-3.77046799659729) translate(-1.4210854715202004e-14,-0.49167314171791077) translate(-1.4210854715202004e-14,2.2951583862304688) translate(-1.4210854715202004e-14,6.557189464569092) translate(-1.4210854715202004e-14,16.393535614013672) translate(-1.4210854715202004e-14,0.5024067163467407) translate(-0.0001690999633865431,0) translate(-0.5732663869857788,0) translate(-0.5728144645690918,0) translate(-0.0006005964241921902,0) translate(-0.5726978182792664,0) translate(-1.7197757959365845,0) translate(-0.5732313990592957,0) translate(-2.6751351356506348,0) translate(-7.6424174308776855,0) translate(-0.5736687183380127,0) translate(-1.146314024925232,0) translate(-0.572976291179657,0) translate(-0.0004329541989136487,0) translate(-2.101790189743042,0) translate(-5.5406012535095215,0) translate(-4.394942283630371,0) translate(-3.8212785720825195,0) translate(-1.1463749408721924,0) translate(-0.5730444192886353,0) translate(-0.573599100112915,0) translate(-1.1465721130371094,0) translate(-1.7194359302520752,0) translate(-1.7194138765335083,0) translate(-2.1018002033233643,0) translate(-0.5731054544448853,0) translate(-1.1464215517044067,0) translate(-1.1468520164489746,0) translate(-2.101780652999878,0) translate(-3.821636438369751,0) translate(-2.674664258956909,0) translate(-2.101686477661133,0) translate(-2.101921319961548,0) translate(-2.1018264293670654,0) translate(-1.146567702293396,0) translate(-2.1014926433563232,0) translate(-2.101728916168213,0) translate(-2.6750621795654297,0) translate(-2.6748464107513428,0) translate(-2.1022040843963623,0) translate(-1.7193763256072998,0) translate(-2.101752281188965,0) translate(-1.7195920944213867,0) translate(-1.1464773416519165,0) translate(-1.719673752784729,0) translate(-1.7199857234954834,0) translate(-1.1462032794952393,0) translate(-1.1463024616241455,0) translate(-1.1464015245437622,0) translate(-0.5730710029602051,0) translate(-0.5736220479011536,0) translate(0.00025948096299543977,0) translate(-1.1462674140930176,0) translate(-1.146363615989685,0) translate(-1.1467951536178589,0) translate(-1.146561861038208,0) translate(-0.5728932023048401,0) translate(-0.5734471082687378,0) translate(-1.1460895538330078,0) translate(-0.0003323688870295882,0) translate(-1.7192859649658203,0) translate(-2.675429582595825,0) translate(-7.069620609283447,0) translate(0.00034986197715625167,0) translate(0.5731147527694702,0) translate(-0.00009912756650010124,0) translate(1.1464277505874634,0) translate(0.573091447353363,0) translate(1.1467427015304565,0) translate(0.5730739235877991,0) translate(1.146386981010437,0) translate(0.5730564594268799,0) translate(0.5736104249954224,0) translate(-0.00027405854780226946,0) translate(1.14658522605896,0) translate(-0.00017493098857812583,0) translate(1.7194492816925049,0) translate(0.5538315176963806,0) translate(-0.1910713016986847,0) translate(-0.1910713016986847,0) translate(-0.1910713016986847,0) translate(-0.1910713016986847,0) translate(-0.1910713016986847,0) translate(-0.1910713016986847,0) translate(-0.1910713016986847,0) translate(-0.1910713016986847,0) translate(-0.1910713016986847,0) translate(-0.1910713016986847,0) translate(-0.1910713016986847,0) translate(-0.1910713016986847,0) translate(-0.1910713016986847,0) translate(-0.1910713016986847,0) translate(-0.1910713016986847,0) translate(-0.1910713016986847,0) translate(-1.4210854715202004e-14,-0.16393274068832397) translate(-1.4210854715202004e-14,-0.16393274068832397) translate(-1.4210854715202004e-14,-0.16393274068832397) translate(-1.4210854715202004e-14,-0.16393274068832397) translate(-1.4210854715202004e-14,-0.16393274068832397) translate(-1.4210854715202004e-14,-0.16393274068832397) translate(-1.4210854715202004e-14,-0.16393274068832397) translate(-1.4210854715202004e-14,-0.16393274068832397) translate(-1.4210854715202004e-14,-0.16393274068832397) translate(-1.4210854715202004e-14,-0.16393274068832397) translate(-1.4210854715202004e-14,-0.16393274068832397) translate(-1.4210854715202004e-14,-0.16393274068832397) translate(-1.4210854715202004e-14,-0.16393274068832397) translate(-1.4210854715202004e-14,-0.16393274068832397) translate(-1.4210854715202004e-14,-0.16393274068832397) translate(-1.4210854715202004e-14,-0.16393274068832397) translate(-4.611603736877441,0) translate(0,-5.6934309005737305) ">Layer 1</title>
    <!-- Created with UXWing SVG Editor - https://uxwing.com/svg-icon-editor/ -->
    <g stroke="null" id="svg_17">
     <g stroke="null" id="svg_25" transform="matrix(0.1712931460690343,0,0,0.191721156949687,-3962.3140570313326,-4346.364567157947) ">
      <title stroke="null" transform="translate(0.000585377449169755,0) translate(9.395140647888184,0) translate(9.396562576293945,0) translate(9.394054412841797,0) translate(-0.0010393436532467604,0) translate(18.791893005371094,0) translate(34.448936462402344,0) translate(34.44562911987305,0) translate(0.0028193688485771418,0) translate(-0.001087129465304315,0) translate(-134.66123962402344,0) translate(0.5212726593017578,0) translate(-0.5219491720199585,0) translate(-0.5219491720199585,0) translate(-0.5219491720199585,0) translate(-0.5219491720199585,0) translate(-0.5219491720199585,0) translate(-0.5219491720199585,0) translate(-0.5219491720199585,0) translate(-0.5219491720199585,0) translate(-0.5219491720199585,0) translate(-0.5219491720199585,0) translate(-0.5219491720199585,0) translate(-0.5219491720199585,0) translate(-0.5219491720199585,0) translate(-0.5219491720199585,0) translate(-0.5219491720199585,0) translate(-0.5219491720199585,0) translate(-0.5219491720199585,0) translate(-0.5219491720199585,0) translate(-0.5219491720199585,0) translate(-0.5219491720199585,0) translate(-0.5219491720199585,0) translate(-0.5219491720199585,0) translate(-0.5219491720199585,0) translate(-0.5219491720199585,0) translate(-0.5219491720199585,0) translate(-0.5219491720199585,0) translate(88.20941162109375,-3.0690720081329346) translate(-0.0007884675869718194,0) translate(0.00117075489833951,0) translate(-0.0007884675869718194,0) translate(-0.0007884675869718194,0) translate(-0.0007884675869718194,0) translate(1.0460814237594604,0) translate(3.637978807091713e-12,-0.30690717697143555) translate(0.5219491720199585,0) translate(0.5219491720199585,0) translate(0.5219491720199585,0) translate(0.5219491720199585,0) translate(0.5219491720199585,0) translate(0.5219491720199585,0) translate(0.5219491720199585,0) translate(0.5219491720199585,0) translate(0.5219491720199585,0) translate(0.5219491720199585,0) translate(0.5219491720199585,0) translate(0.5219491720199585,0) translate(0.5219491720199585,0) translate(0.5219491720199585,0) translate(0.5219491720199585,0) translate(0.5219491720199585,0) translate(0.5219491720199585,0) translate(0.5219491720199585,0) translate(0.5219491720199585,0) translate(0.5219491720199585,0) translate(0.5219491720199585,0) translate(0.5219491720199585,0) translate(0.5219491720199585,0) translate(0.5219491720199585,0) translate(0.5219491720199585,0) translate(0.5219491720199585,0) translate(0.5219491720199585,0) translate(0.5219491720199585,0) translate(-0.0010632365010678768,0) translate(-0.0010632365010678768,0) translate(-28.184717178344727,0) translate(-62.632198333740234,0) translate(-0.002162312623113394,0) translate(0.001756132347509265,0) translate(9.394346237182617,0) translate(54.803932189941406,0) translate(0.5219491720199585,0) translate(0.5219491720199585,0) translate(0.5219491720199585,0) translate(0.5219491720199585,0) translate(0.5219491720199585,0) translate(0.5219491720199585,0) translate(0.5219491720199585,0) translate(0.5219491720199585,0) translate(0.5219491720199585,0) translate(0.5219491720199585,0) translate(0.5219491720199585,0) translate(0.5219491720199585,0) translate(0.5219491720199585,0) translate(0.5219491720199585,0) translate(0.5219491720199585,0) translate(0.5219491720199585,0) translate(0.5219491720199585,0) translate(0.5219491720199585,0) translate(0.5219491720199585,0) translate(0.5219491720199585,0) translate(0.5219491720199585,0) translate(-0.0007884675869718194,0) translate(-9.39338493347168,0) translate(-28.18577003479004,0) translate(-72.02985382080078,0) translate(-0.0008063872810453176,0) translate(34.45043182373047,0) translate(62.63451385498047,0) translate(81.42447662353516,0) translate(43.844078063964844,0) translate(62.63314437866211,0) translate(90.81951904296875,0) translate(53.23857498168945,0) translate(106.47623443603516,0) translate(90.82080841064453,0) translate(134.6637725830078,0) translate(-0.0011946478625759482,0) translate(-115.8723373413086,0) translate(-231.74563598632812,0) translate(-125.26764678955078,0) translate(-294.3806457519531,0) translate(-9.395622253417969,0) translate(-18.7895450592041,0) translate(0.0006410032510757446,0) translate(34.44786834716797,0) translate(-0.5219491720199585,0) translate(-0.5219491720199585,0) translate(-0.5219491720199585,0) translate(-0.5219491720199585,0) translate(-0.5219491720199585,0) translate(-0.5219491720199585,0) translate(-0.5219491720199585,0) translate(-0.5219491720199585,0) translate(-0.5219491720199585,0) translate(-0.5219491720199585,0) translate(-0.5219491720199585,0) translate(-0.5219491720199585,0) translate(-0.5219491720199585,0) translate(-0.5219491720199585,0) translate(-0.5219491720199585,0) translate(-0.5219491720199585,0) translate(-0.5219491720199585,0) translate(-0.5219491720199585,0) translate(-0.5219491720199585,0) translate(-0.5219491720199585,0) translate(-0.5219491720199585,0) translate(-0.5219491720199585,0) translate(-0.5219491720199585,0) translate(-0.5219491720199585,0) translate(-0.5219491720199585,0) translate(-0.5219491720199585,0) translate(-0.5219491720199585,0) translate(-0.5219491720199585,0) translate(-0.5219491720199585,0) translate(-0.5219491720199585,0) translate(3.637978807091713e-12,-1.841444730758667) translate(4.59770393371582,0) translate(4.59770393371582,0) translate(4.59770393371582,0) translate(4.59770393371582,0) translate(4.59770393371582,0) translate(4.59770393371582,0) translate(4.59770393371582,0) translate(-4.59770393371582,0) translate(-4.59770393371582,0) translate(-4.59770393371582,0) translate(-4.59770393371582,0) translate(-4.59770393371582,0) translate(-4.59770393371582,0) translate(-4.59770393371582,0) translate(-4.59770393371582,0) translate(-4.59770393371582,0) translate(-4.59770393371582,0) translate(-4.59770393371582,0) translate(-4.59770393371582,0) translate(-4.59770393371582,0) translate(-4.59770393371582,0) translate(3.637978807091713e-12,-0.001966875046491623) translate(3.637978807091713e-12,5.525373935699463) translate(3.637978807091713e-12,5.524502754211426) translate(3.637978807091713e-12,16.572425842285156) translate(3.637978807091713e-12,0.001376812462694943) translate(3.637978807091713e-12,5.522858619689941) translate(3.637978807091713e-12,5.52391242980957) translate(3.637978807091713e-12,11.050368309020996) translate(3.637978807091713e-12,20.255596160888672) translate(3.637978807091713e-12,20.25556755065918) translate(3.637978807091713e-12,-0.0003231294685974717) translate(3.637978807091713e-12,-20.25618553161621) translate(3.637978807091713e-12,-16.572551727294922) translate(3.637978807091713e-12,-25.78080177307129) translate(3.637978807091713e-12,-62.60801696777344) translate(3.637978807091713e-12,-5.522332191467285) translate(-0.00030035278177820146,0) translate(41.38055419921875,0) translate(0.0012211422435939312,0) translate(41.37815856933594,0) translate(13.79375171661377,0) translate(-13.794285774230957,0) translate(-41.378116607666016,0) translate(-50.57696533203125,0) translate(-13.791267395019531,0) translate(-133.33218383789062,0) translate(-13.795600891113281,0) translate(27.587310791015625,0) translate(105.74723052978516,0) translate(41.37892532348633,0) translate(78.1597900390625,0) translate(12.856273651123047,0) translate(-119.5403060913086,48.92512893676758) translate(27.58622169494629,113.62621307373047) translate(59.7701530456543,58.088096618652344) translate(3.637978807091713e-12,-0.0005479804240167141) translate(-171.5537109375,0) translate(3.637978807091713e-12,-11.971257209777832) translate(3.637978807091713e-12,-2.5668444633483887) translate(3.637978807091713e-12,11.970970153808594) translate(3.637978807091713e-12,34.20329284667969) translate(3.637978807091713e-12,22.231460571289062) translate(3.637978807091713e-12,2.5663225650787354) translate(3.637978807091713e-12,-22.23320960998535) translate(3.637978807091713e-12,-2.564208984375) translate(3.637978807091713e-12,-14.534188270568848) translate(3.637978807091713e-12,-39.334110260009766) translate(3.637978807091713e-12,-11.97018814086914) translate(3.637978807091713e-12,-17.102886199951172) translate(3.637978807091713e-12,-29.07204246520996) translate(3.637978807091713e-12,-19.66414451599121) translate(3.637978807091713e-12,-14.536863327026367) translate(3.637978807091713e-12,-9.405166625976562) translate(3.637978807091713e-12,-5.132345199584961) translate(3.637978807091713e-12,-7.693383693695068) translate(3.637978807091713e-12,-46.175594329833984) translate(3.637978807091713e-12,-76.09815979003906) translate(3.637978807091713e-12,-46.173763275146484) translate(3.637978807091713e-12,-36.7662467956543) translate(3.637978807091713e-12,-43.61006546020508) translate(3.637978807091713e-12,-46.173973083496094) translate(3.637978807091713e-12,-31.63561248779297) translate(3.637978807091713e-12,-19.66641616821289) translate(3.637978807091713e-12,-2.5645220279693604) translate(3.637978807091713e-12,11.971336364746094) translate(3.637978807091713e-12,34.201698303222656) translate(3.637978807091713e-12,85.5071792602539) translate(3.637978807091713e-12,2.6205074787139893) translate(-0.0009871963411569595,0) translate(-3.3466978073120117,0) translate(-3.344059467315674,0) translate(-0.003506249049678445,0) translate(-3.3433785438537598,0) translate(-10.039957046508789,0) translate(-3.3464934825897217,0) translate(-15.617292404174805,0) translate(-44.61601257324219,0) translate(-3.349046468734741,0) translate(-6.6921186447143555,0) translate(-3.345004081726074,0) translate(-0.002527562901377678,0) translate(-12.270135879516602,0) translate(-32.345726013183594,0) translate(-25.657432556152344,0) translate(-22.308414459228516,0) translate(-6.692473888397217,0) translate(-3.3454020023345947,0) translate(-3.348640203475952,0) translate(-6.693624973297119,0) translate(-10.037972450256348,0) translate(-10.037843704223633,0) translate(-12.270194053649902,0) translate(-3.3457581996917725,0) translate(-6.692746162414551,0) translate(-6.695259094238281,0) translate(-12.27008056640625,0) translate(-22.310504913330078,0) translate(-15.614542961120605,0) translate(-12.269530296325684,0) translate(-12.270901679992676,0) translate(-12.270347595214844,0) translate(-6.693599224090576,0) translate(-12.268399238586426,0) translate(-12.26977825164795,0) translate(-15.616866111755371,0) translate(-15.615606307983398,0) translate(-12.272552490234375,0) translate(-10.03762435913086,0) translate(-12.269914627075195,0) translate(-10.038884162902832,0) translate(-6.6930718421936035,0) translate(-10.039361000061035,0) translate(-10.041182518005371,0) translate(-6.691472053527832,0) translate(-6.692050933837891,0) translate(-6.692629337310791,0) translate(-3.34555721282959,0) translate(-3.3487741947174072,0) translate(0.0015148356324061751,0) translate(-6.6918463706970215,0) translate(-6.692408084869385,0) translate(-6.694927215576172,0) translate(-6.693565368652344,0) translate(-3.3445191383361816,0) translate(-3.347752809524536,0) translate(-6.690807819366455,0) translate(-0.0019403513288125396,0) translate(-10.037096977233887,0) translate(-15.619010925292969,0) translate(-41.272056579589844,0) translate(0.0020424751564860344,0) translate(3.3458125591278076,0) translate(-0.0005787013215012848,0) translate(6.692782402038574,0) translate(3.3456764221191406,0) translate(6.6946210861206055,0) translate(3.345574140548706,0) translate(6.692544460296631,0) translate(3.3454720973968506,0) translate(3.3487062454223633,0) translate(-0.0015999387251213193,0) translate(6.69370174407959,0) translate(-0.0010212375782430172,0) translate(10.038050651550293,0) translate(3.2332379817962646,0) translate(-1.1154637336730957,0) translate(-1.1154637336730957,0) translate(-1.1154637336730957,0) translate(-1.1154637336730957,0) translate(-1.1154637336730957,0) translate(-1.1154637336730957,0) translate(-1.1154637336730957,0) translate(-1.1154637336730957,0) translate(-1.1154637336730957,0) translate(-1.1154637336730957,0) translate(-1.1154637336730957,0) translate(-1.1154637336730957,0) translate(-1.1154637336730957,0) translate(-1.1154637336730957,0) translate(-1.1154637336730957,0) translate(-1.1154637336730957,0) translate(3.637978807091713e-12,-0.8550581932067871) translate(3.637978807091713e-12,-0.8550581932067871) translate(3.637978807091713e-12,-0.8550581932067871) translate(3.637978807091713e-12,-0.8550581932067871) translate(3.637978807091713e-12,-0.8550581932067871) translate(3.637978807091713e-12,-0.8550581932067871) translate(3.637978807091713e-12,-0.8550581932067871) translate(3.637978807091713e-12,-0.8550581932067871) translate(3.637978807091713e-12,-0.8550581932067871) translate(3.637978807091713e-12,-0.8550581932067871) translate(3.637978807091713e-12,-0.8550581932067871) translate(3.637978807091713e-12,-0.8550581932067871) translate(3.637978807091713e-12,-0.8550581932067871) translate(3.637978807091713e-12,-0.8550581932067871) translate(3.637978807091713e-12,-0.8550581932067871) translate(3.637978807091713e-12,-0.8550581932067871) translate(-26.922290802001953,0) translate(3.637978807091713e-12,-29.696414947509766) ">background</title>
      <rect stroke="null" fill="none" id="svg_28" height="514" width="514" y="22337.70712" x="22219.26123"/>
      <g stroke="null" display="none" id="svg_26">
       <rect stroke="null" fill="url(#gridpattern)" stroke-width="0" y="22338.70712" x="22220.26123" height="50" width="50" id="svg_27"/>
      </g>
     </g>
     <g stroke="null" id="svg_18" transform="matrix(0.1712931460690343,0,0,0.191721156949687,-3962.3140570313326,-4346.364567157947) ">
      <title stroke="null" transform="translate(0.000585377449169755,0) translate(9.395140647888184,0) translate(9.396562576293945,0) translate(9.394054412841797,0) translate(-0.0010393436532467604,0) translate(18.791893005371094,0) translate(34.448936462402344,0) translate(34.44562911987305,0) translate(0.0028193688485771418,0) translate(-0.001087129465304315,0) translate(-134.66123962402344,0) translate(0.5212726593017578,0) translate(-0.5219491720199585,0) translate(-0.5219491720199585,0) translate(-0.5219491720199585,0) translate(-0.5219491720199585,0) translate(-0.5219491720199585,0) translate(-0.5219491720199585,0) translate(-0.5219491720199585,0) translate(-0.5219491720199585,0) translate(-0.5219491720199585,0) translate(-0.5219491720199585,0) translate(-0.5219491720199585,0) translate(-0.5219491720199585,0) translate(-0.5219491720199585,0) translate(-0.5219491720199585,0) translate(-0.5219491720199585,0) translate(-0.5219491720199585,0) translate(-0.5219491720199585,0) translate(-0.5219491720199585,0) translate(-0.5219491720199585,0) translate(-0.5219491720199585,0) translate(-0.5219491720199585,0) translate(-0.5219491720199585,0) translate(-0.5219491720199585,0) translate(-0.5219491720199585,0) translate(-0.5219491720199585,0) translate(-0.5219491720199585,0) translate(88.20941162109375,-3.0690720081329346) translate(-0.0007884675869718194,0) translate(0.00117075489833951,0) translate(-0.0007884675869718194,0) translate(-0.0007884675869718194,0) translate(-0.0007884675869718194,0) translate(1.0460814237594604,0) translate(3.637978807091713e-12,-0.30690717697143555) translate(0.5219491720199585,0) translate(0.5219491720199585,0) translate(0.5219491720199585,0) translate(0.5219491720199585,0) translate(0.5219491720199585,0) translate(0.5219491720199585,0) translate(0.5219491720199585,0) translate(0.5219491720199585,0) translate(0.5219491720199585,0) translate(0.5219491720199585,0) translate(0.5219491720199585,0) translate(0.5219491720199585,0) translate(0.5219491720199585,0) translate(0.5219491720199585,0) translate(0.5219491720199585,0) translate(0.5219491720199585,0) translate(0.5219491720199585,0) translate(0.5219491720199585,0) translate(0.5219491720199585,0) translate(0.5219491720199585,0) translate(0.5219491720199585,0) translate(0.5219491720199585,0) translate(0.5219491720199585,0) translate(0.5219491720199585,0) translate(0.5219491720199585,0) translate(0.5219491720199585,0) translate(0.5219491720199585,0) translate(0.5219491720199585,0) translate(-0.0010632365010678768,0) translate(-0.0010632365010678768,0) translate(-28.184717178344727,0) translate(-62.632198333740234,0) translate(-0.002162312623113394,0) translate(0.001756132347509265,0) translate(9.394346237182617,0) translate(54.803932189941406,0) translate(0.5219491720199585,0) translate(0.5219491720199585,0) translate(0.5219491720199585,0) translate(0.5219491720199585,0) translate(0.5219491720199585,0) translate(0.5219491720199585,0) translate(0.5219491720199585,0) translate(0.5219491720199585,0) translate(0.5219491720199585,0) translate(0.5219491720199585,0) translate(0.5219491720199585,0) translate(0.5219491720199585,0) translate(0.5219491720199585,0) translate(0.5219491720199585,0) translate(0.5219491720199585,0) translate(0.5219491720199585,0) translate(0.5219491720199585,0) translate(0.5219491720199585,0) translate(0.5219491720199585,0) translate(0.5219491720199585,0) translate(0.5219491720199585,0) translate(-0.0007884675869718194,0) translate(-9.39338493347168,0) translate(-28.18577003479004,0) translate(-72.02985382080078,0) translate(-0.0008063872810453176,0) translate(34.45043182373047,0) translate(62.63451385498047,0) translate(81.42447662353516,0) translate(43.844078063964844,0) translate(62.63314437866211,0) translate(90.81951904296875,0) translate(53.23857498168945,0) translate(106.47623443603516,0) translate(90.82080841064453,0) translate(134.6637725830078,0) translate(-0.0011946478625759482,0) translate(-115.8723373413086,0) translate(-231.74563598632812,0) translate(-125.26764678955078,0) translate(-294.3806457519531,0) translate(-9.395622253417969,0) translate(-18.7895450592041,0) translate(0.0006410032510757446,0) translate(34.44786834716797,0) translate(-0.5219491720199585,0) translate(-0.5219491720199585,0) translate(-0.5219491720199585,0) translate(-0.5219491720199585,0) translate(-0.5219491720199585,0) translate(-0.5219491720199585,0) translate(-0.5219491720199585,0) translate(-0.5219491720199585,0) translate(-0.5219491720199585,0) translate(-0.5219491720199585,0) translate(-0.5219491720199585,0) translate(-0.5219491720199585,0) translate(-0.5219491720199585,0) translate(-0.5219491720199585,0) translate(-0.5219491720199585,0) translate(-0.5219491720199585,0) translate(-0.5219491720199585,0) translate(-0.5219491720199585,0) translate(-0.5219491720199585,0) translate(-0.5219491720199585,0) translate(-0.5219491720199585,0) translate(-0.5219491720199585,0) translate(-0.5219491720199585,0) translate(-0.5219491720199585,0) translate(-0.5219491720199585,0) translate(-0.5219491720199585,0) translate(-0.5219491720199585,0) translate(-0.5219491720199585,0) translate(-0.5219491720199585,0) translate(-0.5219491720199585,0) translate(3.637978807091713e-12,-1.841444730758667) translate(4.59770393371582,0) translate(4.59770393371582,0) translate(4.59770393371582,0) translate(4.59770393371582,0) translate(4.59770393371582,0) translate(4.59770393371582,0) translate(4.59770393371582,0) translate(-4.59770393371582,0) translate(-4.59770393371582,0) translate(-4.59770393371582,0) translate(-4.59770393371582,0) translate(-4.59770393371582,0) translate(-4.59770393371582,0) translate(-4.59770393371582,0) translate(-4.59770393371582,0) translate(-4.59770393371582,0) translate(-4.59770393371582,0) translate(-4.59770393371582,0) translate(-4.59770393371582,0) translate(-4.59770393371582,0) translate(-4.59770393371582,0) translate(3.637978807091713e-12,-0.001966875046491623) translate(3.637978807091713e-12,5.525373935699463) translate(3.637978807091713e-12,5.524502754211426) translate(3.637978807091713e-12,16.572425842285156) translate(3.637978807091713e-12,0.001376812462694943) translate(3.637978807091713e-12,5.522858619689941) translate(3.637978807091713e-12,5.52391242980957) translate(3.637978807091713e-12,11.050368309020996) translate(3.637978807091713e-12,20.255596160888672) translate(3.637978807091713e-12,20.25556755065918) translate(3.637978807091713e-12,-0.0003231294685974717) translate(3.637978807091713e-12,-20.25618553161621) translate(3.637978807091713e-12,-16.572551727294922) translate(3.637978807091713e-12,-25.78080177307129) translate(3.637978807091713e-12,-62.60801696777344) translate(3.637978807091713e-12,-5.522332191467285) translate(-0.00030035278177820146,0) translate(41.38055419921875,0) translate(0.0012211422435939312,0) translate(41.37815856933594,0) translate(13.79375171661377,0) translate(-13.794285774230957,0) translate(-41.378116607666016,0) translate(-50.57696533203125,0) translate(-13.791267395019531,0) translate(-133.33218383789062,0) translate(-13.795600891113281,0) translate(27.587310791015625,0) translate(105.74723052978516,0) translate(41.37892532348633,0) translate(78.1597900390625,0) translate(12.856273651123047,0) translate(-119.5403060913086,48.92512893676758) translate(27.58622169494629,113.62621307373047) translate(59.7701530456543,58.088096618652344) translate(3.637978807091713e-12,-0.0005479804240167141) translate(-171.5537109375,0) translate(3.637978807091713e-12,-11.971257209777832) translate(3.637978807091713e-12,-2.5668444633483887) translate(3.637978807091713e-12,11.970970153808594) translate(3.637978807091713e-12,34.20329284667969) translate(3.637978807091713e-12,22.231460571289062) translate(3.637978807091713e-12,2.5663225650787354) translate(3.637978807091713e-12,-22.23320960998535) translate(3.637978807091713e-12,-2.564208984375) translate(3.637978807091713e-12,-14.534188270568848) translate(3.637978807091713e-12,-39.334110260009766) translate(3.637978807091713e-12,-11.97018814086914) translate(3.637978807091713e-12,-17.102886199951172) translate(3.637978807091713e-12,-29.07204246520996) translate(3.637978807091713e-12,-19.66414451599121) translate(3.637978807091713e-12,-14.536863327026367) translate(3.637978807091713e-12,-9.405166625976562) translate(3.637978807091713e-12,-5.132345199584961) translate(3.637978807091713e-12,-7.693383693695068) translate(3.637978807091713e-12,-46.175594329833984) translate(3.637978807091713e-12,-76.09815979003906) translate(3.637978807091713e-12,-46.173763275146484) translate(3.637978807091713e-12,-36.7662467956543) translate(3.637978807091713e-12,-43.61006546020508) translate(3.637978807091713e-12,-46.173973083496094) translate(3.637978807091713e-12,-31.63561248779297) translate(3.637978807091713e-12,-19.66641616821289) translate(3.637978807091713e-12,-2.5645220279693604) translate(3.637978807091713e-12,11.971336364746094) translate(3.637978807091713e-12,34.201698303222656) translate(3.637978807091713e-12,85.5071792602539) translate(3.637978807091713e-12,2.6205074787139893) translate(-0.0009871963411569595,0) translate(-3.3466978073120117,0) translate(-3.344059467315674,0) translate(-0.003506249049678445,0) translate(-3.3433785438537598,0) translate(-10.039957046508789,0) translate(-3.3464934825897217,0) translate(-15.617292404174805,0) translate(-44.61601257324219,0) translate(-3.349046468734741,0) translate(-6.6921186447143555,0) translate(-3.345004081726074,0) translate(-0.002527562901377678,0) translate(-12.270135879516602,0) translate(-32.345726013183594,0) translate(-25.657432556152344,0) translate(-22.308414459228516,0) translate(-6.692473888397217,0) translate(-3.3454020023345947,0) translate(-3.348640203475952,0) translate(-6.693624973297119,0) translate(-10.037972450256348,0) translate(-10.037843704223633,0) translate(-12.270194053649902,0) translate(-3.3457581996917725,0) translate(-6.692746162414551,0) translate(-6.695259094238281,0) translate(-12.27008056640625,0) translate(-22.310504913330078,0) translate(-15.614542961120605,0) translate(-12.269530296325684,0) translate(-12.270901679992676,0) translate(-12.270347595214844,0) translate(-6.693599224090576,0) translate(-12.268399238586426,0) translate(-12.26977825164795,0) translate(-15.616866111755371,0) translate(-15.615606307983398,0) translate(-12.272552490234375,0) translate(-10.03762435913086,0) translate(-12.269914627075195,0) translate(-10.038884162902832,0) translate(-6.6930718421936035,0) translate(-10.039361000061035,0) translate(-10.041182518005371,0) translate(-6.691472053527832,0) translate(-6.692050933837891,0) translate(-6.692629337310791,0) translate(-3.34555721282959,0) translate(-3.3487741947174072,0) translate(0.0015148356324061751,0) translate(-6.6918463706970215,0) translate(-6.692408084869385,0) translate(-6.694927215576172,0) translate(-6.693565368652344,0) translate(-3.3445191383361816,0) translate(-3.347752809524536,0) translate(-6.690807819366455,0) translate(-0.0019403513288125396,0) translate(-10.037096977233887,0) translate(-15.619010925292969,0) translate(-41.272056579589844,0) translate(0.0020424751564860344,0) translate(3.3458125591278076,0) translate(-0.0005787013215012848,0) translate(6.692782402038574,0) translate(3.3456764221191406,0) translate(6.6946210861206055,0) translate(3.345574140548706,0) translate(6.692544460296631,0) translate(3.3454720973968506,0) translate(3.3487062454223633,0) translate(-0.0015999387251213193,0) translate(6.69370174407959,0) translate(-0.0010212375782430172,0) translate(10.038050651550293,0) translate(3.2332379817962646,0) translate(-1.1154637336730957,0) translate(-1.1154637336730957,0) translate(-1.1154637336730957,0) translate(-1.1154637336730957,0) translate(-1.1154637336730957,0) translate(-1.1154637336730957,0) translate(-1.1154637336730957,0) translate(-1.1154637336730957,0) translate(-1.1154637336730957,0) translate(-1.1154637336730957,0) translate(-1.1154637336730957,0) translate(-1.1154637336730957,0) translate(-1.1154637336730957,0) translate(-1.1154637336730957,0) translate(-1.1154637336730957,0) translate(-1.1154637336730957,0) translate(3.637978807091713e-12,-0.8550581932067871) translate(3.637978807091713e-12,-0.8550581932067871) translate(3.637978807091713e-12,-0.8550581932067871) translate(3.637978807091713e-12,-0.8550581932067871) translate(3.637978807091713e-12,-0.8550581932067871) translate(3.637978807091713e-12,-0.8550581932067871) translate(3.637978807091713e-12,-0.8550581932067871) translate(3.637978807091713e-12,-0.8550581932067871) translate(3.637978807091713e-12,-0.8550581932067871) translate(3.637978807091713e-12,-0.8550581932067871) translate(3.637978807091713e-12,-0.8550581932067871) translate(3.637978807091713e-12,-0.8550581932067871) translate(3.637978807091713e-12,-0.8550581932067871) translate(3.637978807091713e-12,-0.8550581932067871) translate(3.637978807091713e-12,-0.8550581932067871) translate(3.637978807091713e-12,-0.8550581932067871) translate(-26.922290802001953,0) translate(3.637978807091713e-12,-29.696414947509766) ">Layer 1</title>
      <g stroke="null" id="svg_19">
       <g stroke="null" transform="matrix(1.6970248456760515,0,0,2.069574058560264,50.95492115372252,30.524916673566622) " id="svg_23">
        <title stroke="null" transform="translate(0.00034494337160140276,0) translate(5.536242485046387,0) translate(5.53708028793335,0) translate(5.53560209274292,0) translate(-0.0006124504725448787,0) translate(11.073433876037598,0) translate(20.299606323242188,0) translate(20.297657012939453,0) translate(0.0016613597981631756,0) translate(-0.0006406090687960386,0) translate(-79.35136413574219,0) translate(0.30716854333877563,0) translate(-0.30756720900535583,0) translate(-0.30756720900535583,0) translate(-0.30756720900535583,0) translate(-0.30756720900535583,0) translate(-0.30756720900535583,0) translate(-0.30756720900535583,0) translate(-0.30756720900535583,0) translate(-0.30756720900535583,0) translate(-0.30756720900535583,0) translate(-0.30756720900535583,0) translate(-0.30756720900535583,0) translate(-0.30756720900535583,0) translate(-0.30756720900535583,0) translate(-0.30756720900535583,0) translate(-0.30756720900535583,0) translate(-0.30756720900535583,0) translate(-0.30756720900535583,0) translate(-0.30756720900535583,0) translate(-0.30756720900535583,0) translate(-0.30756720900535583,0) translate(-0.30756720900535583,0) translate(-0.30756720900535583,0) translate(-0.30756720900535583,0) translate(-0.30756720900535583,0) translate(-0.30756720900535583,0) translate(-0.30756720900535583,0) translate(51.97885513305664,-1.482948660850525) translate(-0.00046461759484373033,0) translate(0.0006898867432028055,0) translate(-0.00046461759484373033,0) translate(-0.00046461759484373033,0) translate(-0.00046461759484373033,0) translate(0.6164208054542542,0) translate(2.1387336346379016e-12,-0.1482948511838913) translate(0.30756720900535583,0) translate(0.30756720900535583,0) translate(0.30756720900535583,0) translate(0.30756720900535583,0) translate(0.30756720900535583,0) translate(0.30756720900535583,0) translate(0.30756720900535583,0) translate(0.30756720900535583,0) translate(0.30756720900535583,0) translate(0.30756720900535583,0) translate(0.30756720900535583,0) translate(0.30756720900535583,0) translate(0.30756720900535583,0) translate(0.30756720900535583,0) translate(0.30756720900535583,0) translate(0.30756720900535583,0) translate(0.30756720900535583,0) translate(0.30756720900535583,0) translate(0.30756720900535583,0) translate(0.30756720900535583,0) translate(0.30756720900535583,0) translate(0.30756720900535583,0) translate(0.30756720900535583,0) translate(0.30756720900535583,0) translate(0.30756720900535583,0) translate(0.30756720900535583,0) translate(0.30756720900535583,0) translate(0.30756720900535583,0) translate(-0.0006265297415666282,0) translate(-0.0006265297415666282,0) translate(-16.60831069946289,0) translate(-36.90705871582031,0) translate(-0.0012741785030812025,0) translate(0.0010348301148042083,0) translate(5.535774230957031,0) translate(32.294124603271484,0) translate(0.30756720900535583,0) translate(0.30756720900535583,0) translate(0.30756720900535583,0) translate(0.30756720900535583,0) translate(0.30756720900535583,0) translate(0.30756720900535583,0) translate(0.30756720900535583,0) translate(0.30756720900535583,0) translate(0.30756720900535583,0) translate(0.30756720900535583,0) translate(0.30756720900535583,0) translate(0.30756720900535583,0) translate(0.30756720900535583,0) translate(0.30756720900535583,0) translate(0.30756720900535583,0) translate(0.30756720900535583,0) translate(0.30756720900535583,0) translate(0.30756720900535583,0) translate(0.30756720900535583,0) translate(0.30756720900535583,0) translate(0.30756720900535583,0) translate(-0.00046461759484373033,0) translate(-5.535207748413086,0) translate(-16.608932495117188,0) translate(-42.444786071777344,0) translate(-0.0004751770757138729,0) translate(20.300487518310547,0) translate(36.908424377441406,0) translate(47.98072052001953,0) translate(25.83584976196289,0) translate(36.90761947631836,0) translate(53.51690673828125,0) translate(31.37171173095703,0) translate(62.74288558959961,0) translate(53.51766586303711,0) translate(79.35285949707031,0) translate(-0.000703966012224555,0) translate(-68.27969360351562,0) translate(-136.55995178222656,0) translate(-73.81603240966797,0) translate(-173.4686737060547,0) translate(-5.536526203155518,0) translate(-11.072051048278809,0) translate(0.00037772179348394275,0) translate(20.29897689819336,0) translate(-0.30756720900535583,0) translate(-0.30756720900535583,0) translate(-0.30756720900535583,0) translate(-0.30756720900535583,0) translate(-0.30756720900535583,0) translate(-0.30756720900535583,0) translate(-0.30756720900535583,0) translate(-0.30756720900535583,0) translate(-0.30756720900535583,0) translate(-0.30756720900535583,0) translate(-0.30756720900535583,0) translate(-0.30756720900535583,0) translate(-0.30756720900535583,0) translate(-0.30756720900535583,0) translate(-0.30756720900535583,0) translate(-0.30756720900535583,0) translate(-0.30756720900535583,0) translate(-0.30756720900535583,0) translate(-0.30756720900535583,0) translate(-0.30756720900535583,0) translate(-0.30756720900535583,0) translate(-0.30756720900535583,0) translate(-0.30756720900535583,0) translate(-0.30756720900535583,0) translate(-0.30756720900535583,0) translate(-0.30756720900535583,0) translate(-0.30756720900535583,0) translate(-0.30756720900535583,0) translate(-0.30756720900535583,0) translate(-0.30756720900535583,0) translate(2.1387336346379016e-12,-0.8897699117660522) translate(2.709273099899292,0) translate(2.709273099899292,0) translate(2.709273099899292,0) translate(2.709273099899292,0) translate(2.709273099899292,0) translate(2.709273099899292,0) translate(2.709273099899292,0) translate(-2.709273099899292,0) translate(-2.709273099899292,0) translate(-2.709273099899292,0) translate(-2.709273099899292,0) translate(-2.709273099899292,0) translate(-2.709273099899292,0) translate(-2.709273099899292,0) translate(-2.709273099899292,0) translate(-2.709273099899292,0) translate(-2.709273099899292,0) translate(-2.709273099899292,0) translate(-2.709273099899292,0) translate(-2.709273099899292,0) translate(-2.709273099899292,0) translate(2.1387336346379016e-12,-0.0009503767360001802) translate(2.1387336346379016e-12,2.6698122024536133) translate(2.1387336346379016e-12,2.66939115524292) translate(2.1387336346379016e-12,8.007650375366211) translate(2.1387336346379016e-12,0.0006652636802755296) translate(2.1387336346379016e-12,2.6685967445373535) translate(2.1387336346379016e-12,2.6691060066223145) translate(2.1387336346379016e-12,5.339440822601318) translate(2.1387336346379016e-12,9.787325859069824) translate(2.1387336346379016e-12,9.787312507629395) translate(2.1387336346379016e-12,-0.0001561333192512393) translate(2.1387336346379016e-12,-9.78761100769043) translate(2.1387336346379016e-12,-8.007711410522461) translate(2.1387336346379016e-12,-12.457056999206543) translate(2.1387336346379016e-12,-30.251644134521484) translate(2.1387336346379016e-12,-2.668342351913452) translate(-0.0001769878581399098,0) translate(24.38417625427246,0) translate(0.0007195782964117825,0) translate(24.38276481628418,0) translate(8.128196716308594,0) translate(-8.128511428833008,0) translate(-24.382740020751953,0) translate(-29.803314208984375,0) translate(-8.12673282623291,0) translate(-78.56819915771484,0) translate(-8.129286766052246,0) translate(16.25627899169922,0) translate(62.31330871582031,0) translate(24.383216857910156,0) translate(46.056949615478516,0) translate(7.575772285461426,0) translate(-70.44110870361328,23.64019203186035) translate(16.255638122558594,54.9031867980957) translate(35.22055435180664,28.067657470703125) translate(2.1387336346379016e-12,-0.00026477931533008814) translate(-101.09086608886719,0) translate(2.1387336346379016e-12,-5.7844061851501465) translate(2.1387336346379016e-12,-1.2402766942977905) translate(2.1387336346379016e-12,5.784267425537109) translate(2.1387336346379016e-12,16.526731491088867) translate(2.1387336346379016e-12,10.742046356201172) translate(2.1387336346379016e-12,1.2400245666503906) translate(2.1387336346379016e-12,-10.742891311645508) translate(2.1387336346379016e-12,-1.239003300666809) translate(2.1387336346379016e-12,-7.022791862487793) translate(2.1387336346379016e-12,-19.005895614624023) translate(2.1387336346379016e-12,-5.7838897705078125) translate(2.1387336346379016e-12,-8.263964653015137) translate(2.1387336346379016e-12,-14.047355651855469) translate(2.1387336346379016e-12,-9.501542091369629) translate(2.1387336346379016e-12,-7.024084568023682) translate(2.1387336346379016e-12,-4.544493675231934) translate(2.1387336346379016e-12,-2.4799041748046875) translate(2.1387336346379016e-12,-3.7173755168914795) translate(2.1387336346379016e-12,-22.311641693115234) translate(2.1387336346379016e-12,-36.769962310791016) translate(2.1387336346379016e-12,-22.31075668334961) translate(2.1387336346379016e-12,-17.765127182006836) translate(2.1387336346379016e-12,-21.07200050354004) translate(2.1387336346379016e-12,-22.31085777282715) translate(2.1387336346379016e-12,-15.286049842834473) translate(2.1387336346379016e-12,-9.502639770507812) translate(2.1387336346379016e-12,-1.2391544580459595) translate(2.1387336346379016e-12,5.784444332122803) translate(2.1387336346379016e-12,16.52596092224121) translate(2.1387336346379016e-12,41.31631851196289) translate(2.1387336346379016e-12,1.26620614528656) translate(-0.0005817217752337456,0) translate(-1.9720971584320068,0) translate(-1.9705424308776855,0) translate(-0.0020661153830587864,0) translate(-1.9701411724090576,0) translate(-5.916211128234863,0) translate(-1.9719767570495605,0) translate(-9.20274829864502,0) translate(-26.29072380065918,0) translate(-1.9734810590744019,0) translate(-3.943441867828369,0) translate(-1.9710990190505981,0) translate(-0.0014894083142280579,0) translate(-7.230381011962891,0) translate(-19.06025505065918,0) translate(-15.119067192077637,0) translate(-13.14560317993164,0) translate(-3.9436511993408203,0) translate(-1.9713335037231445,0) translate(-1.9732416868209839,0) translate(-3.9443295001983643,0) translate(-5.915041446685791,0) translate(-5.914965629577637,0) translate(-7.230414867401123,0) translate(-1.9715434312820435,0) translate(-3.9438114166259766,0) translate(-3.9452922344207764,0) translate(-7.230348110198975,0) translate(-13.146834373474121,0) translate(-9.201128005981445,0) translate(-7.2300238609313965,0) translate(-7.230832099914551,0) translate(-7.230505466461182,0) translate(-3.9443142414093018,0) translate(-7.2293572425842285,0) translate(-7.230170249938965,0) translate(-9.202497482299805,0) translate(-9.201754570007324,0) translate(-7.231804847717285,0) translate(-5.914836406707764,0) translate(-7.230250358581543,0) translate(-5.915578842163086,0) translate(-3.9440033435821533,0) translate(-5.915859699249268,0) translate(-5.916933059692383,0) translate(-3.9430606365203857,0) translate(-3.94340181350708,0) translate(-3.9437427520751953,0) translate(-1.9714250564575195,0) translate(-1.973320722579956,0) translate(0.0008926420123316348,0) translate(-3.943281412124634,0) translate(-3.9436123371124268,0) translate(-3.945096731185913,0) translate(-3.9442942142486572,0) translate(-1.970813274383545,0) translate(-1.9727188348770142,0) translate(-3.94266939163208,0) translate(-0.0011433841427788138,0) translate(-5.914525508880615,0) translate(-9.203761100769043,0) translate(-24.32024383544922,0) translate(0.0012035623658448458,0) translate(1.9715754985809326,0) translate(-0.00034100934863090515,0) translate(3.9438328742980957,0) translate(1.971495270729065,0) translate(3.944916248321533,0) translate(1.9714349508285522,0) translate(3.943692684173584,0) translate(1.9713748693466187,0) translate(1.973280668258667,0) translate(-0.0009427904151380062,0) translate(3.9443745613098145,0) translate(-0.0006017811829224229,0) translate(5.915087699890137,0) translate(1.9052389860153198,0) translate(-0.6573054790496826,0) translate(-0.6573054790496826,0) translate(-0.6573054790496826,0) translate(-0.6573054790496826,0) translate(-0.6573054790496826,0) translate(-0.6573054790496826,0) translate(-0.6573054790496826,0) translate(-0.6573054790496826,0) translate(-0.6573054790496826,0) translate(-0.6573054790496826,0) translate(-0.6573054790496826,0) translate(-0.6573054790496826,0) translate(-0.6573054790496826,0) translate(-0.6573054790496826,0) translate(-0.6573054790496826,0) translate(-0.6573054790496826,0) translate(2.1387336346379016e-12,-0.4131565988063812) translate(2.1387336346379016e-12,-0.4131565988063812) translate(2.1387336346379016e-12,-0.4131565988063812) translate(2.1387336346379016e-12,-0.4131565988063812) translate(2.1387336346379016e-12,-0.4131565988063812) translate(2.1387336346379016e-12,-0.4131565988063812) translate(2.1387336346379016e-12,-0.4131565988063812) translate(2.1387336346379016e-12,-0.4131565988063812) translate(2.1387336346379016e-12,-0.4131565988063812) translate(2.1387336346379016e-12,-0.4131565988063812) translate(2.1387336346379016e-12,-0.4131565988063812) translate(2.1387336346379016e-12,-0.4131565988063812) translate(2.1387336346379016e-12,-0.4131565988063812) translate(2.1387336346379016e-12,-0.4131565988063812) translate(2.1387336346379016e-12,-0.4131565988063812) translate(2.1387336346379016e-12,-0.4131565988063812) translate(-15.864405632019043,0) translate(2.1387336346379016e-12,-14.34904670715332) ">background</title>
        <rect stroke="null" x="13157.001709" y="10844.567117" width="102" height="102" id="svg_24" fill="none"/>
       </g>
       <g stroke="null" transform="matrix(1.6970248456760515,0,0,2.069574058560264,50.95492115372252,30.524916673566622) " id="svg_20">
        <title stroke="null" transform="translate(0.00034494337160140276,0) translate(5.536242485046387,0) translate(5.53708028793335,0) translate(5.53560209274292,0) translate(-0.0006124504725448787,0) translate(11.073433876037598,0) translate(20.299606323242188,0) translate(20.297657012939453,0) translate(0.0016613597981631756,0) translate(-0.0006406090687960386,0) translate(-79.35136413574219,0) translate(0.30716854333877563,0) translate(-0.30756720900535583,0) translate(-0.30756720900535583,0) translate(-0.30756720900535583,0) translate(-0.30756720900535583,0) translate(-0.30756720900535583,0) translate(-0.30756720900535583,0) translate(-0.30756720900535583,0) translate(-0.30756720900535583,0) translate(-0.30756720900535583,0) translate(-0.30756720900535583,0) translate(-0.30756720900535583,0) translate(-0.30756720900535583,0) translate(-0.30756720900535583,0) translate(-0.30756720900535583,0) translate(-0.30756720900535583,0) translate(-0.30756720900535583,0) translate(-0.30756720900535583,0) translate(-0.30756720900535583,0) translate(-0.30756720900535583,0) translate(-0.30756720900535583,0) translate(-0.30756720900535583,0) translate(-0.30756720900535583,0) translate(-0.30756720900535583,0) translate(-0.30756720900535583,0) translate(-0.30756720900535583,0) translate(-0.30756720900535583,0) translate(51.97885513305664,-1.482948660850525) translate(-0.00046461759484373033,0) translate(0.0006898867432028055,0) translate(-0.00046461759484373033,0) translate(-0.00046461759484373033,0) translate(-0.00046461759484373033,0) translate(0.6164208054542542,0) translate(2.1387336346379016e-12,-0.1482948511838913) translate(0.30756720900535583,0) translate(0.30756720900535583,0) translate(0.30756720900535583,0) translate(0.30756720900535583,0) translate(0.30756720900535583,0) translate(0.30756720900535583,0) translate(0.30756720900535583,0) translate(0.30756720900535583,0) translate(0.30756720900535583,0) translate(0.30756720900535583,0) translate(0.30756720900535583,0) translate(0.30756720900535583,0) translate(0.30756720900535583,0) translate(0.30756720900535583,0) translate(0.30756720900535583,0) translate(0.30756720900535583,0) translate(0.30756720900535583,0) translate(0.30756720900535583,0) translate(0.30756720900535583,0) translate(0.30756720900535583,0) translate(0.30756720900535583,0) translate(0.30756720900535583,0) translate(0.30756720900535583,0) translate(0.30756720900535583,0) translate(0.30756720900535583,0) translate(0.30756720900535583,0) translate(0.30756720900535583,0) translate(0.30756720900535583,0) translate(-0.0006265297415666282,0) translate(-0.0006265297415666282,0) translate(-16.60831069946289,0) translate(-36.90705871582031,0) translate(-0.0012741785030812025,0) translate(0.0010348301148042083,0) translate(5.535774230957031,0) translate(32.294124603271484,0) translate(0.30756720900535583,0) translate(0.30756720900535583,0) translate(0.30756720900535583,0) translate(0.30756720900535583,0) translate(0.30756720900535583,0) translate(0.30756720900535583,0) translate(0.30756720900535583,0) translate(0.30756720900535583,0) translate(0.30756720900535583,0) translate(0.30756720900535583,0) translate(0.30756720900535583,0) translate(0.30756720900535583,0) translate(0.30756720900535583,0) translate(0.30756720900535583,0) translate(0.30756720900535583,0) translate(0.30756720900535583,0) translate(0.30756720900535583,0) translate(0.30756720900535583,0) translate(0.30756720900535583,0) translate(0.30756720900535583,0) translate(0.30756720900535583,0) translate(-0.00046461759484373033,0) translate(-5.535207748413086,0) translate(-16.608932495117188,0) translate(-42.444786071777344,0) translate(-0.0004751770757138729,0) translate(20.300487518310547,0) translate(36.908424377441406,0) translate(47.98072052001953,0) translate(25.83584976196289,0) translate(36.90761947631836,0) translate(53.51690673828125,0) translate(31.37171173095703,0) translate(62.74288558959961,0) translate(53.51766586303711,0) translate(79.35285949707031,0) translate(-0.000703966012224555,0) translate(-68.27969360351562,0) translate(-136.55995178222656,0) translate(-73.81603240966797,0) translate(-173.4686737060547,0) translate(-5.536526203155518,0) translate(-11.072051048278809,0) translate(0.00037772179348394275,0) translate(20.29897689819336,0) translate(-0.30756720900535583,0) translate(-0.30756720900535583,0) translate(-0.30756720900535583,0) translate(-0.30756720900535583,0) translate(-0.30756720900535583,0) translate(-0.30756720900535583,0) translate(-0.30756720900535583,0) translate(-0.30756720900535583,0) translate(-0.30756720900535583,0) translate(-0.30756720900535583,0) translate(-0.30756720900535583,0) translate(-0.30756720900535583,0) translate(-0.30756720900535583,0) translate(-0.30756720900535583,0) translate(-0.30756720900535583,0) translate(-0.30756720900535583,0) translate(-0.30756720900535583,0) translate(-0.30756720900535583,0) translate(-0.30756720900535583,0) translate(-0.30756720900535583,0) translate(-0.30756720900535583,0) translate(-0.30756720900535583,0) translate(-0.30756720900535583,0) translate(-0.30756720900535583,0) translate(-0.30756720900535583,0) translate(-0.30756720900535583,0) translate(-0.30756720900535583,0) translate(-0.30756720900535583,0) translate(-0.30756720900535583,0) translate(-0.30756720900535583,0) translate(2.1387336346379016e-12,-0.8897699117660522) translate(2.709273099899292,0) translate(2.709273099899292,0) translate(2.709273099899292,0) translate(2.709273099899292,0) translate(2.709273099899292,0) translate(2.709273099899292,0) translate(2.709273099899292,0) translate(-2.709273099899292,0) translate(-2.709273099899292,0) translate(-2.709273099899292,0) translate(-2.709273099899292,0) translate(-2.709273099899292,0) translate(-2.709273099899292,0) translate(-2.709273099899292,0) translate(-2.709273099899292,0) translate(-2.709273099899292,0) translate(-2.709273099899292,0) translate(-2.709273099899292,0) translate(-2.709273099899292,0) translate(-2.709273099899292,0) translate(-2.709273099899292,0) translate(2.1387336346379016e-12,-0.0009503767360001802) translate(2.1387336346379016e-12,2.6698122024536133) translate(2.1387336346379016e-12,2.66939115524292) translate(2.1387336346379016e-12,8.007650375366211) translate(2.1387336346379016e-12,0.0006652636802755296) translate(2.1387336346379016e-12,2.6685967445373535) translate(2.1387336346379016e-12,2.6691060066223145) translate(2.1387336346379016e-12,5.339440822601318) translate(2.1387336346379016e-12,9.787325859069824) translate(2.1387336346379016e-12,9.787312507629395) translate(2.1387336346379016e-12,-0.0001561333192512393) translate(2.1387336346379016e-12,-9.78761100769043) translate(2.1387336346379016e-12,-8.007711410522461) translate(2.1387336346379016e-12,-12.457056999206543) translate(2.1387336346379016e-12,-30.251644134521484) translate(2.1387336346379016e-12,-2.668342351913452) translate(-0.0001769878581399098,0) translate(24.38417625427246,0) translate(0.0007195782964117825,0) translate(24.38276481628418,0) translate(8.128196716308594,0) translate(-8.128511428833008,0) translate(-24.382740020751953,0) translate(-29.803314208984375,0) translate(-8.12673282623291,0) translate(-78.56819915771484,0) translate(-8.129286766052246,0) translate(16.25627899169922,0) translate(62.31330871582031,0) translate(24.383216857910156,0) translate(46.056949615478516,0) translate(7.575772285461426,0) translate(-70.44110870361328,23.64019203186035) translate(16.255638122558594,54.9031867980957) translate(35.22055435180664,28.067657470703125) translate(2.1387336346379016e-12,-0.00026477931533008814) translate(-101.09086608886719,0) translate(2.1387336346379016e-12,-5.7844061851501465) translate(2.1387336346379016e-12,-1.2402766942977905) translate(2.1387336346379016e-12,5.784267425537109) translate(2.1387336346379016e-12,16.526731491088867) translate(2.1387336346379016e-12,10.742046356201172) translate(2.1387336346379016e-12,1.2400245666503906) translate(2.1387336346379016e-12,-10.742891311645508) translate(2.1387336346379016e-12,-1.239003300666809) translate(2.1387336346379016e-12,-7.022791862487793) translate(2.1387336346379016e-12,-19.005895614624023) translate(2.1387336346379016e-12,-5.7838897705078125) translate(2.1387336346379016e-12,-8.263964653015137) translate(2.1387336346379016e-12,-14.047355651855469) translate(2.1387336346379016e-12,-9.501542091369629) translate(2.1387336346379016e-12,-7.024084568023682) translate(2.1387336346379016e-12,-4.544493675231934) translate(2.1387336346379016e-12,-2.4799041748046875) translate(2.1387336346379016e-12,-3.7173755168914795) translate(2.1387336346379016e-12,-22.311641693115234) translate(2.1387336346379016e-12,-36.769962310791016) translate(2.1387336346379016e-12,-22.31075668334961) translate(2.1387336346379016e-12,-17.765127182006836) translate(2.1387336346379016e-12,-21.07200050354004) translate(2.1387336346379016e-12,-22.31085777282715) translate(2.1387336346379016e-12,-15.286049842834473) translate(2.1387336346379016e-12,-9.502639770507812) translate(2.1387336346379016e-12,-1.2391544580459595) translate(2.1387336346379016e-12,5.784444332122803) translate(2.1387336346379016e-12,16.52596092224121) translate(2.1387336346379016e-12,41.31631851196289) translate(2.1387336346379016e-12,1.26620614528656) translate(-0.0005817217752337456,0) translate(-1.9720971584320068,0) translate(-1.9705424308776855,0) translate(-0.0020661153830587864,0) translate(-1.9701411724090576,0) translate(-5.916211128234863,0) translate(-1.9719767570495605,0) translate(-9.20274829864502,0) translate(-26.29072380065918,0) translate(-1.9734810590744019,0) translate(-3.943441867828369,0) translate(-1.9710990190505981,0) translate(-0.0014894083142280579,0) translate(-7.230381011962891,0) translate(-19.06025505065918,0) translate(-15.119067192077637,0) translate(-13.14560317993164,0) translate(-3.9436511993408203,0) translate(-1.9713335037231445,0) translate(-1.9732416868209839,0) translate(-3.9443295001983643,0) translate(-5.915041446685791,0) translate(-5.914965629577637,0) translate(-7.230414867401123,0) translate(-1.9715434312820435,0) translate(-3.9438114166259766,0) translate(-3.9452922344207764,0) translate(-7.230348110198975,0) translate(-13.146834373474121,0) translate(-9.201128005981445,0) translate(-7.2300238609313965,0) translate(-7.230832099914551,0) translate(-7.230505466461182,0) translate(-3.9443142414093018,0) translate(-7.2293572425842285,0) translate(-7.230170249938965,0) translate(-9.202497482299805,0) translate(-9.201754570007324,0) translate(-7.231804847717285,0) translate(-5.914836406707764,0) translate(-7.230250358581543,0) translate(-5.915578842163086,0) translate(-3.9440033435821533,0) translate(-5.915859699249268,0) translate(-5.916933059692383,0) translate(-3.9430606365203857,0) translate(-3.94340181350708,0) translate(-3.9437427520751953,0) translate(-1.9714250564575195,0) translate(-1.973320722579956,0) translate(0.0008926420123316348,0) translate(-3.943281412124634,0) translate(-3.9436123371124268,0) translate(-3.945096731185913,0) translate(-3.9442942142486572,0) translate(-1.970813274383545,0) translate(-1.9727188348770142,0) translate(-3.94266939163208,0) translate(-0.0011433841427788138,0) translate(-5.914525508880615,0) translate(-9.203761100769043,0) translate(-24.32024383544922,0) translate(0.0012035623658448458,0) translate(1.9715754985809326,0) translate(-0.00034100934863090515,0) translate(3.9438328742980957,0) translate(1.971495270729065,0) translate(3.944916248321533,0) translate(1.9714349508285522,0) translate(3.943692684173584,0) translate(1.9713748693466187,0) translate(1.973280668258667,0) translate(-0.0009427904151380062,0) translate(3.9443745613098145,0) translate(-0.0006017811829224229,0) translate(5.915087699890137,0) translate(1.9052389860153198,0) translate(-0.6573054790496826,0) translate(-0.6573054790496826,0) translate(-0.6573054790496826,0) translate(-0.6573054790496826,0) translate(-0.6573054790496826,0) translate(-0.6573054790496826,0) translate(-0.6573054790496826,0) translate(-0.6573054790496826,0) translate(-0.6573054790496826,0) translate(-0.6573054790496826,0) translate(-0.6573054790496826,0) translate(-0.6573054790496826,0) translate(-0.6573054790496826,0) translate(-0.6573054790496826,0) translate(-0.6573054790496826,0) translate(-0.6573054790496826,0) translate(2.1387336346379016e-12,-0.4131565988063812) translate(2.1387336346379016e-12,-0.4131565988063812) translate(2.1387336346379016e-12,-0.4131565988063812) translate(2.1387336346379016e-12,-0.4131565988063812) translate(2.1387336346379016e-12,-0.4131565988063812) translate(2.1387336346379016e-12,-0.4131565988063812) translate(2.1387336346379016e-12,-0.4131565988063812) translate(2.1387336346379016e-12,-0.4131565988063812) translate(2.1387336346379016e-12,-0.4131565988063812) translate(2.1387336346379016e-12,-0.4131565988063812) translate(2.1387336346379016e-12,-0.4131565988063812) translate(2.1387336346379016e-12,-0.4131565988063812) translate(2.1387336346379016e-12,-0.4131565988063812) translate(2.1387336346379016e-12,-0.4131565988063812) translate(2.1387336346379016e-12,-0.4131565988063812) translate(2.1387336346379016e-12,-0.4131565988063812) translate(-15.864405632019043,0) translate(2.1387336346379016e-12,-14.34904670715332) ">Layer 1</title>
        <path stroke="null" d="m13218.202836,10892.288949zm20.78637,-22.82888c-1.00713,0.77346 -2.67466,0.79726 -3.73131,0.0833c-1.07317,-0.72586 -1.10619,-1.9277 -0.11557,-2.68926l7.281,-5.58673c1.00713,-0.77346 2.68291,-0.79726 3.73131,-0.0833c1.07317,0.72586 1.10619,1.92769 0.11557,2.68925l-7.281,5.58674l0,0l0,0l0,0zm-32.41782,-0.39268c1.07317,0.72586 1.10619,1.93364 0.11557,2.68925c-1.00712,0.77346 -2.68291,0.79726 -3.73131,0.0833l-7.7598,-5.24761c-1.06491,-0.73181 -1.09793,-1.93364 -0.11557,-2.68925c1.00712,-0.77346 2.68291,-0.79726 3.73131,-0.0833l7.7598,5.24761l0,0l0,0zm16.28733,-4.57529c0.04128,1.04714 -1.10618,1.92769 -2.55083,1.96339s-2.67465,-0.79726 -2.72418,-1.83845l-0.32195,-7.65723c-0.04953,-1.04119 1.10618,-1.92769 2.55083,-1.96339c1.4529,-0.02974 2.67465,0.79726 2.71593,1.83845l0.3302,7.65723l0,0l0,0zm10.88849,28.17168c-1.07316,-0.72586 -1.10618,-1.93364 -0.11557,-2.68925c1.00712,-0.77346 2.67466,-0.79726 3.73131,-0.0833l7.75155,5.24761c1.07316,0.72586 1.10618,1.92769 0.11557,2.68925c-1.00712,0.77346 -2.67466,0.79726 -3.73131,0.0833l-7.75155,-5.24761l0,0l0,0zm9.47687,-11.28057c-1.44465,0.03569 -2.67466,-0.79726 -2.72419,-1.83845c-0.04127,-1.04119 1.10619,-1.92769 2.55083,-1.96339l10.61607,-0.25584c1.44465,-0.0357 2.67466,0.79726 2.72419,1.83845s-1.10619,1.92769 -2.55083,1.96339l-10.61607,0.25584l0,0l0,0z" id="svg_22" fill="#333333"/>
        <path stroke="null" d="m13191.182786,10892.568579c-0.03302,-0.07139 -0.06605,-0.16659 -0.08256,-0.24988c-0.18161,-1.12449 -0.35497,-2.36797 -0.51181,-3.43891c-0.21464,-1.57071 -0.45403,-3.38536 -0.62739,-4.65859c-0.11557,-0.8627 -0.49531,-1.68376 -1.0484,-2.29657c-0.37148,-0.39268 -0.78424,-0.68422 -1.24652,-0.82701c-0.37148,-0.10709 -0.82551,-0.11899 -1.29605,0.0119c-0.6439,0.17849 -1.3621,0.55332 -2.16284,1.20778c-0.70994,0.58307 -1.26303,1.36248 -1.72532,2.18948c-0.65215,1.20779 -1.04014,2.49291 -1.19699,3.37347c-0.01651,0.05949 -0.01651,0.10709 -0.04953,0.15469l-4.44125,18.17029c-0.06604,0.23798 -0.19812,0.45217 -0.39625,0.61876c-1.49417,1.38628 -2.43525,2.57621 -2.70767,3.54006c-0.19812,0.70801 0,1.27917 0.65215,1.7254l16.34512,11.78034c1.04014,0.71991 2.24539,1.17209 3.69003,1.36248c1.57673,0.21419 3.41762,0.09519 5.53093,-0.32128c0.03302,0 0.08255,-0.0119 0.11557,-0.0119c0.80074,-0.15469 1.84914,-0.33913 2.85627,-0.52357c4.38346,-0.76751 8.20557,-1.44577 11.74702,-3.76614l4.55682,-3.42701c0.04127,-0.0595 0.11557,-0.1071 0.18161,-0.15469s0.51182,-0.36888 1.11444,-0.77941c3.12043,-2.19543 6.97557,-4.90848 4.63112,-7.2824l-1.82438,-1.31487c-0.8833,0.61876 -1.82438,1.21968 -2.72419,1.7968c-0.82551,0.52357 -1.59324,1.00549 -2.29492,1.51716c-0.75122,0.54142 -1.96472,0.54142 -2.72419,0c-0.75121,-0.54737 -0.75121,-1.41602 0,-1.96339c0.70994,-0.51167 1.57673,-1.06499 2.47654,-1.64211c3.08741,-1.96339 6.62885,-4.20641 4.73017,-6.17575l-1.80786,-1.30298c-0.09907,-0.0714 -0.18162,-0.15469 -0.25591,-0.23799c-1.04015,0.76751 -2.17935,1.49932 -3.30205,2.21328c-0.82551,0.52357 -1.59323,1.00549 -2.29492,1.51716c-0.75121,0.54142 -1.96471,0.54142 -2.72418,0s-0.75122,-1.41602 0,-1.96339c0.70994,-0.51167 1.57672,-1.06499 2.47653,-1.64211c3.08741,-1.96339 6.62885,-4.20641 4.73018,-6.17575l-1.80787,-1.30298c-0.13208,-0.09519 -0.23114,-0.18444 -0.3137,-0.29748l-5.29978,3.81968c-0.75121,0.54142 -1.96471,0.54142 -2.72418,0s-0.75122,-1.41602 0,-1.96339l14.2153,-10.26318c2.37747,-1.7135 2.9223,-3.4984 2.29492,-4.84898c-0.23115,-0.49382 -0.61088,-0.93409 -1.08142,-1.27323s-1.08142,-0.61281 -1.7666,-0.7794c-1.84914,-0.44028 -4.31742,-0.0357 -6.76093,1.7254l-24.93043,17.968c-0.75122,0.54142 -1.96472,0.54142 -2.72419,0s-0.75121,-1.41602 0,-1.96339l2.53432,-1.82655l-0.02476,-0.01785l0,0l0,0zm28.91764,-2.48696c0.14034,0.0595 0.28068,0.1309 0.41276,0.22609l1.89042,1.36247c0.09906,0.0714 0.19812,0.1666 0.28067,0.24989c2.12157,2.09428 1.79136,3.96248 0.34672,5.66409c0.25591,0.07139 0.51181,0.17254 0.70994,0.32128l1.89042,1.36247c0.09906,0.0714 0.19812,0.16659 0.28067,0.24989c2.27841,2.26087 1.70881,4.23616 0,6.03296c0.08255,0.02975 0.14034,0.0833 0.23114,0.1428l1.89042,1.36247c0.09907,0.0714 0.19813,0.16659 0.28068,0.24989c4.38346,4.31946 -0.84202,7.98445 -5.03562,10.94144l-1.08142,0.7794l-4.68065,3.54006l-0.14859,0.10114c-4.2844,2.8023 -8.52753,3.55195 -13.43932,4.41466c-0.82551,0.14279 -1.65102,0.29748 -2.80673,0.51167c-0.03302,0 -0.04953,0.0119 -0.08255,0.0119c-2.65815,0.52357 -5.06864,0.64851 -7.23148,0.36888c-2.19586,-0.28559 -4.10279,-0.9936 -5.69603,-2.11809l-16.36162,-11.78629c-1.65102,-1.14829 -2.22063,-2.56431 -1.75009,-4.24806c0.35497,-1.34463 1.44465,-2.838 3.1452,-4.44441l4.37521,-17.81331l0,-0.07139c0.19812,-1.0174 0.6439,-2.52266 1.41162,-3.97438c0.58612,-1.08879 1.37861,-2.15378 2.41049,-3.01648c1.24653,-1.0174 2.47654,-1.64211 3.69004,-1.97529c1.49417,-0.41053 2.92231,-0.35698 4.18534,0.03569c1.18048,0.35698 2.17935,1.0055 2.93882,1.8325c0.92457,0.9936 1.52719,2.26088 1.6923,3.5817c0.13208,1.08879 0.39624,2.88559 0.64389,4.64669l0.19813,1.46957l18.9042,-13.63664c3.63225,-2.61785 7.56168,-3.13548 10.70687,-2.39177c1.26304,0.29749 2.37748,0.79131 3.30205,1.45767s1.60975,1.46957 2.0225,2.37987c1.04014,2.26087 0.3302,5.13456 -3.236,7.70482l-6.26563,4.5158l-0.02477,-0.04165l0,0l0,0z" id="svg_21" fill="#23585e"/>
       </g>
      </g>
     </g>
    </g>
   </g>
  </g>
 </g>
</svg>