<svg width="100" height="100" xmlns="http://www.w3.org/2000/svg">
 <!-- Created with UXWing SVG Editor - https://uxwing.com/svg-icon-editor/ -->

 <g>
  <title>background</title>
  <rect fill="none" id="canvas_background" height="102" width="102" y="-1" x="-1"/>
  <g display="none" overflow="visible" y="0" x="0" height="100%" width="100%" id="canvasGrid">
   <rect fill="url(#gridpattern)" stroke-width="0" y="0" x="0" height="100%" width="100%"/>
  </g>
 </g>
 <g>
  <title>Layer 1</title>
  <!-- Created with UXWing SVG Editor - https://uxwing.com/svg-icon-editor/ -->
  <g stroke="null" id="svg_34">
   <g stroke="null" transform="matrix(0.26615130190050346,0,0,0.2758787252324181,-50147.1047869396,-51854.32561870586) " id="svg_31">
    <title stroke="null" transform="translate(5.009668827056885,-39.872493743896484) translate(-89.34366607666016,-77.6474838256836) translate(-38.24223709106445,-492.2523193359375) translate(188487.734375,0) translate(0,188487.734375) ">background</title>
    <rect stroke="null" x="188364.158141" y="187876.962078" width="514" height="514" id="svg_29" fill="none"/>
    <g stroke="null" id="svg_28" display="none">
     <rect stroke="null" id="svg_32" width="100" height="100" x="188365.158141" y="187877.962078" stroke-width="0" fill="url(#gridpattern)"/>
    </g>
   </g>
   <g stroke="null" transform="matrix(0.26615130190050346,0,0,0.2758787252324181,-50147.1047869396,-51854.32561870586) " id="svg_33">
    <title stroke="null" transform="translate(5.009668827056885,-39.872493743896484) translate(-89.34366607666016,-77.6474838256836) translate(-38.24223709106445,-492.2523193359375) translate(188487.734375,0) translate(0,188487.734375) ">Layer 1</title>
    <defs stroke="null" transform="translate(5.009668827056885,-39.872493743896484) translate(-89.34366607666016,-77.6474838256836) translate(-38.24223709106445,-492.2523193359375) translate(188487.734375,0) translate(0,188487.734375) ">
     <style stroke="null">.cls-1{fill-rule:evenodd;}</style>
    </defs>
    <g stroke="null" id="svg_24">
     <path stroke="null" class="cls-1" d="m188561.944641,188046.379588a41.43518,41.43518 0 1 1 -41.43518,41.41589a41.41589,41.41589 0 0 1 41.43518,-41.41589zm146.0841,18.80787a2.62346,2.62346 0 0 1 -2.7392,-4.47531l16.24228,-9.97299a2.62346,2.62346 0 0 1 2.71991,4.49459l-16.22299,9.95371zm-10.24306,-13.98534a2.62346,2.62346 0 1 1 -3.47222,-3.95448l15.4321,-13.50308a2.64275,2.64275 0 0 1 3.72299,0.23148a2.62346,2.62346 0 0 1 -0.25077,3.7037l-15.4321,13.50309l0,0.01929zm24.05478,63.63811a2.62346,2.62346 0 0 1 -0.34722,-5.22762l18.38349,-1.25386a2.62346,2.62346 0 1 1 0.34722,5.24691l-18.38349,1.23457zm-1.06095,-17.86265a2.62346,2.62346 0 0 1 -0.84877,-5.16975l16.93673,-2.75849a2.62346,2.62346 0 1 1 0.84877,5.16975l-16.93673,2.77778l0,-0.01929zm-4.07022,-16.30015a2.66204,2.66204 0 0 1 -3.39506,-1.52392a2.62346,2.62346 0 0 1 1.52392,-3.39507l17.24537,-6.57793a2.62346,2.62346 0 1 1 1.92901,4.89969l-17.24537,6.59723l-0.05787,0z" id="svg_27" fill="#23585e"/>
     <defs stroke="null" transform="translate(5.009668827056885,-39.872493743896484) translate(-89.34366607666016,-77.6474838256836) translate(-38.24223709106445,-492.2523193359375) translate(188487.734375,0) translate(0,188487.734375) ">
      <style stroke="null">.cls-1{fill-rule:evenodd;}</style>
     </defs>
     <g stroke="null" id="svg_25">
      <path stroke="null" class="cls-1" d="m188502.636781,188229.837908l2.87423,-66.12654c1.11882,-19.40586 25.28935,-31.98302 44.69521,-30.8642l17.36111,1.00309c17.36111,1.02238 37.51929,13.23302 61.14968,20.6983l-7.25308,-23.14814a12.1142,12.1142 0 0 1 -2.25695,-0.598a16.85957,16.85957 0 0 1 -7.36882,-5.78704l0,0a26.23457,26.23457 0 0 1 -3.62654,-6.88657a25.81018,25.81018 0 0 1 -1.06096,-3.85802a28.04784,28.04784 0 0 1 -0.44367,-3.85803a16.8017,16.8017 0 0 1 1.69753,-8.62268a10.60957,10.60957 0 0 1 5.42052,-4.97685c0,-0.13503 0.15432,-0.27007 0.23148,-0.38581a3.85802,3.85802 0 0 1 0.48226,-0.50154l0,0a2.41127,2.41127 0 0 1 0.36651,-0.28935c3.20216,-7.15664 11.34259,-11.14969 19.07793,-10.80247a131.86727,131.86727 0 0 0 14.39043,-12.22994a85.51311,85.51311 0 0 0 13.02083,-16.85956l0,-0.09645a39.04321,39.04321 0 0 1 4.07022,-5.78704a4.51389,4.51389 0 0 1 4.55247,-1.69753a10.03086,10.03086 0 0 1 3.85802,1.38889a21.45062,21.45062 0 0 1 3.97377,3.125a60.16589,60.16589 0 0 1 9.04706,12.15277a121.95215,121.95215 0 0 1 8.31405,17.07176a111.67052,111.67052 0 0 1 5.652,18.42207a45.02314,45.02314 0 0 1 0.9838,14.39043a17.47685,17.47685 0 0 1 -1.15741,4.55247a10.80247,10.80247 0 0 1 -2.17978,3.39506a0.88735,0.88735 0 0 0 -0.13503,0.13503l-0.19291,0.13503a7.58102,7.58102 0 0 1 -1.77469,0.94522a6.73225,6.73225 0 0 1 -1.81327,0.36651l-0.63657,0a3.97377,3.97377 0 0 0 -0.50155,0l0,0a1.65895,1.65895 0 0 1 -0.61728,0a1.71682,1.71682 0 0 1 -0.59799,-0.15432l-0.82948,-0.13503c-1.92901,-0.34722 -3.85802,-0.84877 -6.01852,-1.3696l-0.13503,0a68.26774,68.26774 0 0 0 -28.14429,-2.17978l13.34877,42.93981c13.75386,51.62036 -31.11497,36.40046 -60.57098,27.00617l-10.05016,-1.92901l-1.92901,41.33873l-95.27391,0.07716zm176.81326,-127.16049a68.67283,68.67283 0 0 0 6.80941,10.12732a37.48071,37.48071 0 0 0 7.38812,7.0216l0.65586,0l0.59799,-0.11574a3.68441,3.68441 0 0 0 0.61729,-0.30864a6.53935,6.53935 0 0 0 1.27315,-2.12191a13.71528,13.71528 0 0 0 0.7716,-3.26003a41.37731,41.37731 0 0 0 -0.9838,-13.21374a106.4236,106.4236 0 0 0 -5.40123,-17.36111a118.98147,118.98147 0 0 0 -7.92824,-16.33873a56.32716,56.32716 0 0 0 -8.37191,-11.24614a17.59259,17.59259 0 0 0 -2.9321,-2.37269c-1.92901,-1.1574 -2.48843,-1.58179 -3.64583,-0.13503l0,0.09645a24.72994,24.72994 0 0 0 -1.02238,11.36188a85.87962,85.87962 0 0 0 3.35648,16.6088a11.78626,11.78626 0 0 1 10.60957,1.63966a10.5517,10.5517 0 0 1 3.24074,4.37886a12.36497,12.36497 0 0 1 0.82947,5.4591a12.61574,12.61574 0 0 1 -5.78703,9.87654l-0.07716,-0.09645z" id="svg_26" fill="#333333"/>
     </g>
    </g>
   </g>
  </g>
 </g>
</svg>