<svg width="512" height="512" xmlns="http://www.w3.org/2000/svg">
 <!-- Created with UXWing SVG Editor - https://uxwing.com/svg-icon-editor/ -->

 <g>
  <title>background</title>
  <rect fill="none" id="canvas_background" height="514" width="514" y="-1" x="-1"/>
  <g display="none" overflow="visible" y="0" x="0" height="100%" width="100%" id="canvasGrid">
   <rect fill="url(#gridpattern)" stroke-width="0" y="0" x="0" height="100%" width="100%"/>
  </g>
 </g>
 <g>
  <title>Layer 1</title>
  <style transform="matrix(2.9127112521701406,0,0,2.9127112521701406,0,0) " type="text/css">
   <![CDATA[
	.st0{fill-rule:evenodd;clip-rule:evenodd;}
	.st1{fill-rule:evenodd;clip-rule:evenodd;fill:#FFFFFF;}
]]>
  </style>
  <!-- Created with UXWing SVG Editor - https://uxwing.com/svg-icon-editor/ -->
  <g stroke="null" id="svg_55">
   <g stroke="null" transform="matrix(4.628397446369828,0,0,3.981338734478013,-32.07391952391481,-9.337834936398394) " id="svg_53">
    <title stroke="null" transform="translate(-7.562012672424316,2.0093743801116943) translate(-18.19610595703125,-28.152463912963867) translate(37.890621185302734,0) translate(0,37.890621185302734) ">background</title>
    <rect stroke="null" fill="none" id="svg_51" height="102" width="102" y="10.747532" x="11.132503"/>
   </g>
   <g stroke="null" transform="matrix(4.628397446369828,0,0,3.981338734478013,-32.07391952391481,-9.337834936398394) " id="svg_54">
    <title stroke="null" transform="translate(-7.562012672424316,2.0093743801116943) translate(-18.19610595703125,-28.152463912963867) translate(37.890621185302734,0) translate(0,37.890621185302734) ">Layer 1</title>
    <g stroke="null" id="svg_43">
     <path stroke="null" fill="#23585e" id="svg_50" d="m37.0033,27.747529l50.805038,0c0.96326,0 1.850834,0.452539 2.490713,1.178161l0,0l0.006881,0.007802l0.006879,0.007802l0,0c0.63988,0.733424 1.038945,1.732129 1.038945,2.824464l0,8.1847l7.898724,0c1.499932,0 2.855376,0.694412 3.832396,1.810153c0.9839,1.115741 1.596258,2.660613 1.596258,4.35373l0,25.997545c0,1.685315 -0.612358,3.230188 -1.596258,4.345928c-0.075685,0.085826 -0.151369,0.16385 -0.233935,0.234072c-0.963258,0.975298 -2.229257,1.576081 -3.598461,1.576081l-7.898724,0l0,8.184702c0,1.107937 -0.399065,2.114445 -1.038945,2.840068c-0.63988,0.725621 -1.527453,1.178159 -2.504474,1.178159l-50.80504,0c-0.963258,0 -1.850834,-0.444735 -2.497593,-1.178159l-0.006881,-0.007802l-0.006879,-0.007802l-0.006881,-0.007802c-0.639878,-0.733426 -1.038943,-1.732129 -1.038943,-2.824464l0,-8.1769l-7.884965,0c-1.486171,0 -2.848494,-0.694412 -3.839276,-1.810153c-0.977019,-1.107937 -1.589377,-2.645008 -1.589377,-4.345928l0,-25.997545c0,-1.70092 0.612358,-3.237989 1.589377,-4.35373c0.075685,-0.085826 0.151369,-0.16385 0.233935,-0.241874c0.963258,-0.975298 2.222377,-1.568279 3.605341,-1.568279l7.891846,0l0,-8.192504c0.006879,-1.107937 0.405944,-2.106643 1.045824,-2.840067c0.041282,-0.039012 0.082564,-0.078024 0.123846,-0.117036c0.633,-0.655402 1.465531,-1.053322 2.380628,-1.053322l0,0l0,0l0.000001,0zm51.149061,50.520439l-51.486202,0l0,8.1769c0,0.109234 0.034401,0.202862 0.096325,0.273084l0,0l0.006881,0.007802c0.061924,0.070222 0.144488,0.109234 0.240815,0.109234l50.80504,0c0.089445,0 0.172009,-0.039012 0.240815,-0.117036c0.061924,-0.070222 0.103206,-0.16385 0.103206,-0.273084l0,-8.1769l-0.006879,0l-0.000001,0z" class="st0"/>
     <path stroke="null" fill="#23585e" id="svg_49" d="m26.062824,42.401139l70.219928,0c1.304861,0 2.373668,1.291232 2.373668,2.832885l0,26.075059c0,1.541652 -1.081922,2.832883 -2.373668,2.832883l-70.219928,0c-1.291748,0 -2.373668,-1.27558 -2.373668,-2.832883l0,-26.075059c0,-1.56513 1.068805,-2.832885 2.373668,-2.832885l0,0z" class="st1"/>
     <path stroke="null" id="svg_48" d="m35.948216,78.4186l48.968382,0c0.032786,0 0.059015,0.031302 0.059015,0.070431l0,8.130848c0,0.211291 -0.144256,0.383456 -0.321299,0.383456l-48.443815,0c-0.177042,0 -0.321297,-0.172165 -0.321297,-0.383456l0,-8.130848c0,-0.039129 0.026228,-0.070431 0.059014,-0.070431l0,0z" class="st1"/>
     <path stroke="null" id="svg_47" d="m37.880032,30.302056c1.199949,0 2.176956,1.166022 2.176956,2.598114s-0.977008,2.598116 -2.176956,2.598116c-1.199949,0 -2.170398,-1.166022 -2.170398,-2.598116s0.970449,-2.598114 2.170398,-2.598114l0,0z" class="st1"/>
     <path stroke="null" id="svg_46" d="m45.564948,30.302056c1.199949,0 2.170398,1.166022 2.170398,2.598114s-0.977008,2.598116 -2.170398,2.598116c-1.199949,0 -2.176956,-1.166022 -2.176956,-2.598116s0.977008,-2.598114 2.176956,-2.598114l0,0z" class="st1"/>
     <path stroke="null" id="svg_45" d="m53.25642,30.302056c1.199949,0 2.170398,1.166022 2.170398,2.598114s-0.977008,2.598116 -2.176955,2.598116s-2.176956,-1.166022 -2.176956,-2.598116s0.983564,-2.598114 2.183513,-2.598114l0,0z" class="st1"/>
     <path stroke="null" fill="#333333" id="svg_44" d="m24.461935,45.900507l5.019903,0l1.809324,13.059649l2.648537,-13.059649l4.981408,0l2.663939,13.080699l1.817019,-13.080699l4.996808,0l-3.77263,23.40424l-5.189287,0l-3.002704,-14.732886l-2.987304,14.732886l-5.18159,0l-3.803423,-23.40424l0,0l0.000001,0zm25.107223,0l5.019903,0l1.809324,13.059649l2.648537,-13.059649l4.981408,0l2.663939,13.080699l1.817019,-13.080699l4.996808,0l-3.77263,23.40424l-5.189287,0l-3.002704,-14.732886l-2.987304,14.732886l-5.18159,0l-3.803423,-23.40424l0,0l0.000001,0zm25.114921,0l5.019905,0l1.801623,13.059649l2.648537,-13.059649l4.981408,0l2.663939,13.080699l1.817019,-13.080699l4.996808,0l-3.772627,23.40424l-5.189289,0l-3.002704,-14.732886l-2.987304,14.732886l-5.181588,0l-3.795727,-23.40424l0,0l0.000001,0z"/>
    </g>
   </g>
  </g>
 </g>
</svg>