<svg width="512" height="512" xmlns="http://www.w3.org/2000/svg">
 <!-- Created with UXWing SVG Editor - https://uxwing.com/svg-icon-editor/ -->

 <g>
  <title>background</title>
  <rect fill="none" id="canvas_background" height="514" width="514" y="-1" x="-1"/>
  <g display="none" overflow="visible" y="0" x="0" height="100%" width="100%" id="canvasGrid">
   <rect fill="url(#gridpattern)" stroke-width="0" y="0" x="0" height="100%" width="100%"/>
  </g>
 </g>
 <g>
  <title>Layer 1</title>
  <style transform="matrix(2.9127112521701406,0,0,2.9127112521701406,0,0) " type="text/css">
   <![CDATA[
	.st0{fill-rule:evenodd;clip-rule:evenodd;}
	.st1{fill-rule:evenodd;clip-rule:evenodd;fill:#FFFFFF;}
]]>
  </style>
  <g stroke="null" transform="matrix(2.9127112521701406,0,0,2.8459202767133136,0,30.463989699666854) " id="svg_22">
   <title stroke="null" transform="translate(12.359618186950684,-10.190025329589844) translate(0.3433227241039276,0) translate(37.890621185302734,0) translate(0,37.890621185302734) ">background</title>
   <rect stroke="null" fill="none" id="svg_20" height="102" width="102" y="26.700596" x="49.593562"/>
  </g>
  <g id="svg_27">
   <path stroke="null" fill="#23585e" id="svg_19" d="m190.805898,184.832401l147.980412,0c2.805698,0 5.390933,1.287893 7.254719,3.352949l0,0l0.020039,0.022198l0.020039,0.022198l0,0c1.863786,2.087283 3.026132,4.929504 3.026132,8.038216l0,23.293004l23.00672,0c4.368863,0 8.316868,1.976235 11.162645,5.151543c2.865817,3.175307 4.649444,7.571884 4.649444,12.390368l0,73.986926c0,4.796286 -1.783628,9.192863 -4.649444,12.36817c-0.220434,0.244265 -0.440897,0.466304 -0.681371,0.666145c-2.805698,2.775626 -6.493191,4.485426 -10.481275,4.485426l-23.00672,0l0,23.293004c0,3.15308 -1.162347,6.017528 -3.026132,8.082613c-1.863786,2.065057 -4.449021,3.352921 -7.294827,3.352921l-147.980412,0c-2.805669,0 -5.390933,-1.265666 -7.274758,-3.352921l-0.020039,-0.022227l-0.020039,-0.022198l-0.020039,-0.022198c-1.863786,-2.087283 -3.026132,-4.929504 -3.026132,-8.038188l0,-23.270806l-22.966641,0c-4.328784,0 -8.296829,-1.976264 -11.182685,-5.151571c-2.845777,-3.15308 -4.629405,-7.527488 -4.629405,-12.36817l0,-73.986926c0,-4.840683 1.783628,-9.215061 4.629405,-12.390368c0.220434,-0.244265 0.440897,-0.466304 0.681371,-0.688343c2.805698,-2.775626 6.473151,-4.4632 10.501314,-4.4632l22.98668,0l0,-23.31523c0.020039,-3.15308 1.182386,-5.995329 3.046172,-8.082584c0.120237,-0.111048 0.240503,-0.222067 0.360739,-0.333087c1.843746,-1.865216 4.268666,-2.997665 6.934088,-2.997665l0,0l0,0zm148.982443,143.777145l-149.964434,0l0,23.270806c0,0.31086 0.100197,0.577323 0.280552,0.777164l0,0l0.020039,0.022198c0.180384,0.199841 0.420858,0.310888 0.701439,0.310888l147.980412,0c0.260513,0 0.501015,-0.111048 0.70141,-0.333087c0.180384,-0.199841 0.300621,-0.466304 0.300621,-0.777164l0,-23.270806l-0.020039,0z" class="st0"/>
   <path stroke="null" fill="#23585e" id="svg_18" d="m158.939438,226.535407l204.53038,0c3.80068,0 6.913815,3.674738 6.913815,8.062151l0,74.207542c0,4.387413 -3.15135,8.062151 -6.913815,8.062151l-204.53038,0c-3.762495,0 -6.913815,-3.630199 -6.913815,-8.062151l0,-74.207542c0,-4.454235 3.113135,-8.062151 6.913815,-8.062151l0,0z" class="st1"/>
   <path stroke="null" id="svg_17" d="m187.732725,329.038227l142.630751,0c0.095508,0 0.171908,0.089077 0.171908,0.200438l0,23.139751c0,0.601314 -0.420188,1.091268 -0.935854,1.091268l-141.10283,0c-0.515696,0 -0.935854,-0.489954 -0.935854,-1.091268l0,-23.139751c0,-0.111361 0.0764,-0.200438 0.171879,-0.200438l0,0z" class="st1"/>
   <path stroke="null" id="svg_16" d="m193.359559,192.102362c3.495108,0 6.340856,3.318428 6.340856,7.394042s-2.845748,7.394014 -6.340856,7.394014c-3.495108,0 -6.321749,-3.3184 -6.321749,-7.394014s2.826641,-7.394042 6.321749,-7.394042l0,0z" class="st1"/>
   <path stroke="null" id="svg_15" d="m215.743512,192.102362c3.495079,0 6.321719,3.318428 6.321719,7.394042s-2.845719,7.394014 -6.321719,7.394014c-3.495108,0 -6.340856,-3.3184 -6.340856,-7.394014s2.845748,-7.394042 6.340856,-7.394042l0,0z" class="st1"/>
   <path stroke="null" id="svg_14" d="m238.146543,192.102362c3.495108,0 6.321719,3.318428 6.321719,7.394042s-2.845719,7.394014 -6.340827,7.394014s-6.340856,-3.3184 -6.340856,-7.394014s2.864855,-7.394042 6.359963,-7.394042l0,0z" class="st1"/>
  </g>
  <text font-style="normal" font-weight="normal" stroke="null" transform="matrix(6.17951240123187,0,0,4.751937927126703,-827.0816084529158,-21.01815921114175) " xml:space="preserve" text-anchor="start" font-family="'League Gothic', sans-serif" font-size="21" id="svg_26" y="67.073177" x="161.921693" stroke-opacity="null" stroke-width="0" fill="#333333">www</text>
 </g>
</svg>