<svg width="100.00000000000001" height="100.00000000000001" xmlns="http://www.w3.org/2000/svg">
 <!-- Created with UXWing SVG Editor - https://uxwing.com/svg-icon-editor/ -->

 <g>
  <title>background</title>
  <rect fill="none" id="canvas_background" height="102" width="102" y="-1" x="-1"/>
  <g display="none" overflow="visible" y="0" x="0" height="100%" width="100%" id="canvasGrid">
   <rect fill="url(#gridpattern)" stroke-width="0" y="0" x="0" height="100%" width="100%"/>
  </g>
 </g>
 <g>
  <title>Layer 1</title>
  <style transform="matrix(0.07358597761112051,0,0,0.07358597761112051,0,0) " type="text/css">.st0{fill-rule:evenodd;clip-rule:evenodd;}</style>
  <path fill="none" stroke="#23585e" id="svg_6" d="m39.968426,53.35062c-0.08891,0.39639 -0.04788,0.85429 0.09575,1.31902c0.06155,0.20503 0.14363,0.40322 0.23938,0.60141c0.09575,0.20503 0.21202,0.40323 0.34881,0.59459c0.12994,0.19136 0.27357,0.37588 0.43088,0.53991c0.15046,0.16402 0.31461,0.31437 0.47875,0.43739l0.00684,0.00683c0.40352,0.31438 0.85492,0.52624 1.31316,0.56725c0.59503,0.05467 1.46363,-0.42373 1.99026,-0.77227l0.11627,-0.07518l0.01368,-0.00684c0.20518,-0.13668 0.41036,-0.2597 0.6087,-0.38955c0.11627,-0.06834 0.25306,-0.08885 0.37617,-0.06151c0.12311,0.02734 0.23254,0.09568 0.30093,0.20503c0.02052,0.02734 0.0342,0.04784 0.04104,0.07518l0.19834,0.35538l0.00684,0.00683c0.25989,0.47157 0.51295,0.92947 0.78653,1.38053c0.25989,0.43739 0.51979,0.84062 0.78652,1.196l0.00684,0.00683l0.0342,0.04101c0.02736,0.041 0.06839,0.09568 0.11627,0.15719l0.00684,0.00683c0.16414,0.2187 0.32829,0.45106 0.49927,0.65609c0.16415,0.1982 0.33513,0.36905 0.49244,0.48524l0,0c0.10943,0.07517 0.2257,0.11618 0.33513,0.08884c0.12311,-0.02733 0.25989,-0.13668 0.4172,-0.34855c0.0342,-0.05467 0.06839,-0.10934 0.10259,-0.16402l0.10259,-0.15719l0.00684,-0.00683c0.10259,-0.15719 0.20518,-0.31438 0.28041,-0.4784c0.05472,-0.11618 0.09576,-0.2392 0.10943,-0.36905c-0.06155,-0.01367 -0.13678,-0.02734 -0.21202,-0.03417l-0.00684,0c-0.54715,-0.06151 -1.08062,-0.12985 -1.25844,-1.18233l0,-0.00684l0,0l-0.02052,-0.12985c-0.02052,-0.13669 -0.0342,-0.2392 -0.04787,-0.30071c-0.00684,-0.041 -0.01368,-0.07518 -0.02052,-0.08884l0,0.00683c0,0.00683 0,0.00683 0,0.00683l0,0l0,0c-0.04788,-0.02733 -0.10259,-0.05467 -0.17099,-0.08884l-0.06155,-0.02734l-0.00684,0l0,0c-0.17782,-0.08884 -0.32145,-0.21186 -0.43088,-0.36905c-0.12311,-0.16402 -0.20518,-0.35538 -0.2599,-0.56041l0,0c-0.05471,-0.20503 -0.08891,-0.42373 -0.10259,-0.64242c-0.01368,-0.25287 -0.00684,-0.49891 0.02052,-0.71077l0,-0.00683c0.01368,-0.08885 0.04104,-0.16403 0.08891,-0.23237l0.00684,-0.01367c0.04788,-0.06151 0.11627,-0.11618 0.1915,-0.15035c0.00684,0 0.01368,-0.00684 0.02052,-0.00684c1.52518,-0.68342 2.81782,-1.03197 3.93264,-1.2165c0.93016,-0.15035 1.74404,-0.17769 2.47586,-0.18452c-1.51151,-0.99781 -3.0572,-2.59703 -4.36353,-4.37395c-1.34051,-1.82475 -2.25447,-5.84768 -2.78111,-7.61776c-0.18213,-1.64149 -1.51473,3.59547 -2.36281,4.94866c-0.99171,1.55138 -5.02623,5.9769 -5.27928,7.08405l0,0l0,0zm13.0632,-14.05812c-0.25305,-0.14352 -0.33513,-0.46473 -0.1915,-0.7176c0.14363,-0.25287 0.46508,-0.33488 0.71814,-0.19136c1.39523,0.80645 3.1803,2.52185 4.68497,4.49696c1.34051,1.75641 2.46217,3.73835 2.90673,5.48109c0.06839,0.28021 -0.09575,0.56725 -0.383,0.64243c-0.28042,0.06834 -0.56767,-0.09568 -0.64291,-0.38272c-0.41036,-1.60606 -1.46362,-3.45132 -2.72207,-5.10521c-1.41575,-1.86576 -3.08455,-3.47865 -4.37036,-4.22359l0,0l0,0zm9.12373,-1.15499c-0.19834,-0.21187 -0.18466,-0.54675 0.0342,-0.74494c0.21202,-0.19819 0.54715,-0.18453 0.74549,0.03417c0.39668,0.43056 0.78653,0.88162 1.16953,1.36002c0.36933,0.46473 0.72497,0.94313 1.06694,1.4352c0.16415,0.2392 0.10259,0.56725 -0.13678,0.73127c-0.23938,0.16402 -0.56767,0.10252 -0.73182,-0.13668c-0.32145,-0.46474 -0.66342,-0.92947 -1.01906,-1.3737c-0.37617,-0.45789 -0.75234,-0.89529 -1.1285,-1.30534l0,0zm-4.43876,0.51257c-0.21886,-0.19136 -0.23937,-0.52624 -0.04787,-0.7381c0.1915,-0.2187 0.52663,-0.2392 0.73865,-0.04784c0.94384,0.83378 1.92871,1.89993 2.8315,3.06175c0.84809,1.09349 1.6141,2.27582 2.19544,3.43081c0.12995,0.25971 0.02736,0.57408 -0.23254,0.70394c-0.25989,0.12985 -0.5745,0.02733 -0.70445,-0.23237c-0.54715,-1.08665 -1.27897,-2.21431 -2.08601,-3.25995c-0.86176,-1.11399 -1.8056,-2.1323 -2.69472,-2.91824l0,0zm-7.7832,7.87993c0.50611,-0.20503 1.01222,-0.29388 1.50466,-0.2392c1.38839,0.15035 2.39378,1.24384 2.27751,2.66537c-0.04104,0.53991 -0.23254,1.12765 -0.57451,1.77691c0.28042,0.27337 0.58135,0.54674 0.90964,0.82695c0.46508,0.40322 0.93016,0.75177 1.40207,1.04564c0.42404,0.26654 0.85492,0.4784 1.27896,0.63559c0.04104,-0.00683 0.08208,-0.01367 0.11627,-0.02733c0.04104,-0.01367 0.07524,-0.03418 0.10943,-0.05468c0.02736,-0.0205 0.06156,-0.041 0.08892,-0.07518c0.06839,-0.13668 0.11627,-0.3007 0.13678,-0.48523c0.02052,-0.20503 0.02052,-0.43056 -0.01368,-0.67659c-0.09575,-0.74494 -0.4172,-1.64707 -0.88911,-2.60387c-0.5198,-1.05248 -1.22425,-2.16646 -2.01078,-3.23261c-0.77285,-1.04565 -1.62093,-2.04345 -2.46217,-2.8704c-0.80021,-0.79278 -1.58674,-1.4352 -2.27752,-1.83159l-0.00684,-0.00683c-0.25305,-0.14352 -0.49243,-0.25287 -0.70445,-0.31438l-0.01368,-0.00683c-0.18466,-0.05468 -0.34881,-0.07518 -0.4856,-0.05468l0,0c-0.03419,0.00684 -0.05471,0.00684 -0.07523,0.01367l-0.00684,0.00683l0,0l0,0c-0.01368,0.02051 -0.0342,0.04784 -0.04787,0.08202c-0.00684,0.01366 -0.02052,0.03417 -0.0342,0.0615l-0.02052,0.04101l0,0.01367l0,0.00683c-0.06839,0.41006 0,0.9568 0.16415,1.59239c0.18466,0.67659 0.48559,1.44887 0.88228,2.26215c0.25989,0.52624 0.50611,1.00464 0.75233,1.44887l0,0l0,0zm-0.89596,10.98952l0,0l0,0l0,0l0,0l0,0l0,0zm6.12124,-3.19844l-0.01368,0c-1.53202,0.01367 -3.44704,0.03417 -6.16228,1.20283c0,0.10252 0,0.21187 0.00684,0.32121c0.00684,0.12986 0.02736,0.25287 0.06156,0.36222l0,0c0.02735,0.08201 0.05471,0.15036 0.08891,0.20503c0.02736,0.04101 0.05471,0.07518 0.08891,0.08885l0.05472,0.02733l0.00684,0l0.01367,0.00684l0,0c0.2941,0.14352 0.44456,0.21869 0.58819,0.44423l0,0.00683c0.10943,0.17769 0.14363,0.36905 0.19834,0.7176l0,0l0.00684,0.03417l0,0.00684l0,0l0.02052,0.12985l0,0.00683c0.05471,0.30071 0.21886,0.32121 0.383,0.34172l0,0l0,0c0.82073,0.09568 1.11482,0.4784 1.10798,0.98413c0,0.45106 -0.26673,0.9773 -0.5745,1.44887l0,0c-0.0342,0.05467 -0.0684,0.10935 -0.09576,0.15035c-0.02735,0.04784 -0.06155,0.09568 -0.08891,0.13669l-0.01368,0.0205c-0.00684,0.00684 -0.00684,0.01367 -0.01367,0.02051c-0.35565,0.50573 -0.71814,0.7586 -1.08747,0.82694c-0.37616,0.06835 -0.73181,-0.05467 -1.08062,-0.29387c-0.43772,-0.30754 -0.82072,-0.81328 -1.17637,-1.29168l-0.05471,-0.07518l-0.05472,-0.07517l0,0l0,0l-0.09575,-0.12986l-0.00684,-0.01366c-0.28041,-0.37589 -0.55399,-0.80645 -0.82072,-1.25751c-0.25306,-0.42373 -0.51296,-0.88846 -0.77969,-1.36686l-0.00684,0.00684c-0.05472,0.03417 -0.10259,0.06834 -0.14363,0.09568l0,0l0,0l-0.1915,0.12985l-0.01368,0.00683c-0.79337,0.51941 -1.49098,0.99097 -2.55793,0.88162c-0.64974,-0.06834 -1.27212,-0.35538 -1.81927,-0.78594c-0.21202,-0.16402 -0.41036,-0.34855 -0.59503,-0.55358c-0.1915,-0.20502 -0.36248,-0.42372 -0.52663,-0.65609c-0.1573,-0.23236 -0.29409,-0.47156 -0.4172,-0.7176c-0.11627,-0.24603 -0.21886,-0.4989 -0.30093,-0.75177l0,-0.00683c-0.1915,-0.63559 -0.24622,-1.28485 -0.10943,-1.85209c0.56767,-2.4125 5.8887,-4.98903 7.79005,-11.05104l0,-0.00683c0.08891,-0.28704 0.17098,-0.54675 0.25989,-0.79278l0,0c0.08207,-0.2392 0.17099,-0.45106 0.26674,-0.62875l0.00684,-0.00684c0.04787,-0.08884 0.08891,-0.15719 0.13678,-0.2187c0.05472,-0.06834 0.11627,-0.12985 0.19151,-0.18452c0.07523,-0.05468 0.1573,-0.09568 0.24621,-0.12985c0.08892,-0.02734 0.18467,-0.04784 0.2941,-0.06151c0.27357,-0.03417 0.56767,-0.00684 0.88228,0.08201c0.30777,0.08885 0.62922,0.23237 0.96435,0.42373l0.00684,0.00683c0.75917,0.43056 1.60041,1.12082 2.45533,1.95461c0.88228,0.87478 1.77824,1.91359 2.58529,3.01391c0.82756,1.12766 1.57305,2.30999 2.12704,3.43765c0.50612,1.03881 0.85492,2.02295 0.96435,2.8704c0.04788,0.35538 0.04788,0.69026 0.00684,0.9978c-0.04103,0.30071 -0.12994,0.57408 -0.27357,0.81328l-0.00684,0.00684c-0.40352,0.71076 -1.68933,0.69709 -2.46901,0.69026c-0.09576,0.00683 -0.18467,0 -0.2599,0l0,0l0,0z" class="st0"/>
  <path fill="#333333" id="svg_8" d="m38.230871,53.836308zm-16.872737,-25.498711l0,39.3313l59.112714,0l0,-39.3313l-59.112714,0l0,0zm60.555822,-2.931908c0.813886,0 1.484144,0.66976 1.484144,1.483039l0,41.798476c0,0.690263 -0.471917,1.271177 -1.114818,1.435199l9.000617,0c0.957512,0 1.737201,0.779108 1.737201,1.735908s-0.779689,1.735908 -1.737201,1.735908l-80.567832,0c-0.957512,0 -1.737201,-0.779108 -1.737201,-1.735908c0,-0.9568 0.779689,-1.735908 1.737201,-1.735908l0,0l8.610773,0c-0.636062,-0.164023 -1.114818,-0.751771 -1.114818,-1.435199l0,-41.798476c0,-0.81328 0.670259,-1.483039 1.484144,-1.483039l62.21779,0l0,0zm-33.355629,45.372807l4.883313,0c0.458238,0 0.834404,0.375886 0.834404,0.833783c0,0.457897 -0.376166,0.833783 -0.834404,0.833783l-4.883313,0c-0.458238,0 -0.834404,-0.375886 -0.834404,-0.833783c0,-0.464731 0.376166,-0.833783 0.834404,-0.833783l0,0z" class="st0"/>
 </g>
</svg>