<svg width="100.00000000000001" height="100.00000000000001" xmlns="http://www.w3.org/2000/svg">
 <!-- Created with UXWing SVG Editor - https://uxwing.com/svg-icon-editor/ -->

 <g>
  <title>background</title>
  <rect fill="none" id="canvas_background" height="102" width="102" y="-1" x="-1"/>
  <g display="none" overflow="visible" y="0" x="0" height="100%" width="100%" id="canvasGrid">
   <rect fill="url(#gridpattern)" stroke-width="0" y="0" x="0" height="100%" width="100%"/>
  </g>
 </g>
 <g>
  <title>Layer 1</title>
  <defs>
   <style>.cls-1{fill-rule:evenodd;}</style>
  </defs>
  <path fill="#23585e" id="svg_8" d="m52.763166,82.725344l-27.779811,0l27.779811,0zm10.870363,-58.590996l19.998671,0a5.533893,6.081826 0 0 1 5.522283,6.069063l0,46.465634a5.533893,6.081826 0 0 1 -5.522283,6.069063l-19.998671,0a5.533893,6.081826 0 0 1 -5.522283,-6.069063l0,-46.472021a5.522283,6.069063 0 0 1 5.522283,-6.062676zm-3.617656,50.173441l27.245583,0l0,-43.555553l-27.245583,0l0,43.555553zm13.616987,1.914527a2.270467,2.495266 0 1 1 -2.270467,2.495276a2.264662,2.488889 0 0 1 2.270467,-2.495276z" class="cls-1"/>
  <path fill="#333333" id="svg_9" d="m73.120989,11.088698l0,8.91307l-3.12754,0l0,-7.036l-42.68508,0l0,59.61828l25.52996,0l0,5.75232a10.50041,10.97785 0 0 0 0.81664,4.23855c0.06371,0.16349 0.12742,0.32092 0.20271,0.48441l-27.70766,0a2.31669,2.42203 0 0 1 -2.31669,-2.42203l0,-69.5486a2.31669,2.42203 0 0 1 2.31669,-2.42203l44.66006,0a2.31669,2.42203 0 0 1 2.3167,2.42203l-0.00579,0zm-25.75005,63.9416a2.64682,2.76717 0 1 1 -2.64103,2.76111a2.64103,2.76111 0 0 1 2.64103,-2.76111z" class="cls-1"/>
 </g>
</svg>