<svg width="100" height="100" xmlns="http://www.w3.org/2000/svg">
 <style type="text/css">
  <![CDATA[
	.st0{fill-rule:evenodd;clip-rule:evenodd;}
	.st1{fill-rule:evenodd;clip-rule:evenodd;fill:#FFFFFF;}
]]>
 </style>

 <g>
  <title>background</title>
  <rect x="-1" y="-1" width="102" height="102" id="canvas_background" fill="none"/>
 </g>
 <g>
  <title>Layer 1</title>
  <g stroke="null" id="svg_1">
   <path stroke="null" class="st0" d="m24.870797,15.999997l50.805038,0c0.96326,0 1.850834,0.452539 2.490713,1.178161l0,0l0.006881,0.007802l0.006879,0.007802l0,0c0.63988,0.733424 1.038945,1.732129 1.038945,2.824464l0,8.1847l7.898724,0c1.499932,0 2.855376,0.694412 3.832396,1.810153c0.9839,1.115741 1.596258,2.660613 1.596258,4.35373l0,25.997545c0,1.685315 -0.612358,3.230188 -1.596258,4.345928c-0.075685,0.085826 -0.151369,0.16385 -0.233935,0.234072c-0.963258,0.975298 -2.229257,1.576081 -3.598461,1.576081l-7.898724,0l0,8.184702c0,1.107937 -0.399065,2.114445 -1.038945,2.840068c-0.63988,0.725621 -1.527453,1.178159 -2.504474,1.178159l-50.80504,0c-0.963258,0 -1.850834,-0.444735 -2.497593,-1.178159l-0.006881,-0.007802l-0.006879,-0.007802l-0.006881,-0.007802c-0.639878,-0.733426 -1.038943,-1.732129 -1.038943,-2.824464l0,-8.1769l-7.884965,0c-1.486171,0 -2.848494,-0.694412 -3.839276,-1.810153c-0.977019,-1.107937 -1.589377,-2.645008 -1.589377,-4.345928l0,-25.997545c0,-1.70092 0.612358,-3.237989 1.589377,-4.35373c0.075685,-0.085826 0.151369,-0.16385 0.233935,-0.241874c0.963258,-0.975298 2.222377,-1.568279 3.605341,-1.568279l7.891846,0l0,-8.192504c0.006879,-1.107937 0.405944,-2.106643 1.045824,-2.840067c0.041282,-0.039012 0.082564,-0.078024 0.123846,-0.117036c0.633,-0.655402 1.465531,-1.053322 2.380628,-1.053322l0,0l0,0zm51.149061,50.520439l-51.486202,0l0,8.1769c0,0.109234 0.034401,0.202862 0.096325,0.273084l0,0l0.006881,0.007802c0.061924,0.070222 0.144488,0.109234 0.240815,0.109234l50.80504,0c0.089445,0 0.172009,-0.039012 0.240815,-0.117036c0.061924,-0.070222 0.103206,-0.16385 0.103206,-0.273084l0,-8.1769l-0.006879,0z" id="svg_2" fill="#23585e"/>
   <path stroke="null" class="st1" d="m13.930321,30.653607l70.219928,0c1.304861,0 2.373668,1.291232 2.373668,2.832885l0,26.075059c0,1.541652 -1.081922,2.832883 -2.373668,2.832883l-70.219928,0c-1.291748,0 -2.373668,-1.27558 -2.373668,-2.832883l0,-26.075059c0,-1.56513 1.068805,-2.832885 2.373668,-2.832885l0,0z" id="svg_3" fill="#23585e"/>
   <path stroke="null" class="st1" d="m23.815713,66.671068l48.968382,0c0.032786,0 0.059015,0.031302 0.059015,0.070431l0,8.130848c0,0.211291 -0.144256,0.383456 -0.321299,0.383456l-48.443815,0c-0.177042,0 -0.321297,-0.172165 -0.321297,-0.383456l0,-8.130848c0,-0.039129 0.026228,-0.070431 0.059014,-0.070431l0,0z" id="svg_4"/>
   <path stroke="null" class="st1" d="m25.747529,18.554524c1.199949,0 2.176956,1.166022 2.176956,2.598114s-0.977008,2.598116 -2.176956,2.598116c-1.199949,0 -2.170398,-1.166022 -2.170398,-2.598116s0.970449,-2.598114 2.170398,-2.598114l0,0z" id="svg_5"/>
   <path stroke="null" class="st1" d="m33.432445,18.554524c1.199949,0 2.170398,1.166022 2.170398,2.598114s-0.977008,2.598116 -2.170398,2.598116c-1.199949,0 -2.176956,-1.166022 -2.176956,-2.598116s0.977008,-2.598114 2.176956,-2.598114l0,0z" id="svg_6"/>
   <path stroke="null" class="st1" d="m41.123917,18.554524c1.199949,0 2.170398,1.166022 2.170398,2.598114s-0.977008,2.598116 -2.176955,2.598116s-2.176956,-1.166022 -2.176956,-2.598116s0.983564,-2.598114 2.183513,-2.598114l0,0z" id="svg_7"/>
   <path stroke="null" d="m16.329436,38.152976l4.275224,0l1.540919,9.711628l2.255639,-9.711628l4.24244,0l2.268756,9.727281l1.547473,-9.727281l4.255555,0l-3.212978,17.40424l-4.419481,0l-2.557267,-10.955907l-2.544152,10.955907l-4.412926,0l-3.239203,-17.40424l0,0zm21.382686,0l4.275224,0l1.540919,9.711628l2.255639,-9.711628l4.24244,0l2.268756,9.727281l1.547473,-9.727281l4.255555,0l-3.212978,17.40424l-4.419481,0l-2.557267,-10.955907l-2.544152,10.955907l-4.412926,0l-3.239203,-17.40424l0,0zm21.389242,0l4.275226,0l1.534361,9.711628l2.255639,-9.711628l4.24244,0l2.268756,9.727281l1.547473,-9.727281l4.255555,0l-3.212976,17.40424l-4.419483,0l-2.557267,-10.955907l-2.544152,10.955907l-4.412924,0l-3.232649,-17.40424l0,0z" id="svg_8" fill="#333333"/>
  </g>
 </g>
</svg>