<svg height='100px' width='100px'  fill="#000000" xmlns="http://www.w3.org/2000/svg" xmlns:xlink="http://www.w3.org/1999/xlink" version="1.1" x="0px" y="0px" viewBox="0 0 100 100" enable-background="new 0 0 100 100" xml:space="preserve"><path d="M84.606,41.806c-1.769-3.714,1.674-13.86-6.139-30.269c0,0-0.975-1.762-1.086-4.324c-0.11-2.563-4.473-5.333-10.263-1.691  c-5.79,3.643-0.777,3.896-0.124,8.133c0.652,4.236-0.305,6.562-4.005,7.183c0,0-12.391-0.761-22.829,8.995  c0,0-12.138-4.253-19.422-3.395c-7.284,0.858,11.167,6.844,8.689,10.688c-2.479,3.843-6.901,8.76-7.555,18.481  c0,0-1.271,3.072-4.282,5.277s-3.743,4.853-0.762,3.48c2.981-1.372,6.108-1.316,7.007,0.763c0.899,2.079,2.517,3.783,2.301,4.865  c-0.216,1.082-1.235,5.194,0.55,7.169c1.784,1.975,1.104-1.777,1.525-2.382c0,0,4.91,1.862,6.457,5.469s-0.147,9.883,5.31,14.61  s-2.065-4.02,0.62-7.46c2.684-3.442,12.256-2.303,16.575-0.836c4.32,1.466,2.103,3.86,6.945,0.663  c4.846-3.195-0.609-2.445-5.896-3.724c-5.289-1.276-12.143-3.952-17.08-4.523c-4.936-0.572-6.299-8.611-6.162-10.351  c0.137-1.739,3.682,0.781,2.488-1.557c-1.194-2.339-4.207-1.747-4.336-5.43c-0.129-3.685,0.979-9.292,4.311-10.689  c0,0,4.553,6.477,5.415,11.848c0.862,5.369,4.497,4.069,5.328-4.174c0.831-8.241-0.852-12.729,1.575-15.02  c2.426-2.291,7.54-1.124,18.091-5.334c0,0,3.453-1.201,5.334,3.312c1.88,4.514,0.572,7.107,5.123,6.345  C82.857,47.167,86.375,45.52,84.606,41.806z M72.793,30.303c-0.098,0.365-0.205,0.721-0.369,1.028  c-0.139,0.33-0.312,0.616-0.497,0.884c-0.173,0.282-0.367,0.523-0.567,0.753c-0.192,0.237-0.39,0.452-0.599,0.64  c-0.399,0.402-0.813,0.722-1.197,1.007c-0.378,0.297-0.771,0.499-1.097,0.701c-0.321,0.208-0.637,0.339-0.885,0.46  c-0.502,0.234-0.803,0.34-0.803,0.34s0.169-0.279,0.486-0.72c0.157-0.218,0.349-0.482,0.567-0.787  c0.207-0.309,0.468-0.631,0.708-1.005c0.25-0.366,0.524-0.753,0.77-1.173c0.064-0.103,0.131-0.205,0.198-0.31  c0.057-0.108,0.114-0.217,0.172-0.327c0.112-0.219,0.248-0.431,0.33-0.66c0.099-0.225,0.204-0.446,0.261-0.67  c0.087-0.224,0.119-0.443,0.167-0.658c0.05-0.429,0.063-0.827-0.057-1.199c-0.107-0.375-0.32-0.742-0.601-1.106  c-0.28-0.363-0.656-0.698-1.04-1.017c-0.781-0.632-1.656-1.156-2.422-1.599c-0.768-0.449-1.444-0.804-1.92-1.066  c-0.48-0.264-0.757-0.414-0.757-0.414s0.317-0.054,0.872-0.063c0.554-0.009,1.349,0.022,2.291,0.198  c0.472,0.087,0.979,0.216,1.511,0.391c0.528,0.188,1.089,0.405,1.643,0.73c0.553,0.321,1.122,0.705,1.621,1.25  c0.506,0.533,0.942,1.219,1.184,2.008C72.997,28.718,72.967,29.565,72.793,30.303z"></path></svg>