<svg width="512" height="512" xmlns="http://www.w3.org/2000/svg">
 <!-- Created with UXWing SVG Editor - https://uxwing.com/svg-icon-editor/ -->

 <g>
  <title>background</title>
  <rect fill="none" id="canvas_background" height="514" width="514" y="-1" x="-1"/>
  <g display="none" overflow="visible" y="0" x="0" height="100%" width="100%" id="canvasGrid">
   <rect fill="url(#gridpattern)" stroke-width="0" y="0" x="0" height="100%" width="100%"/>
  </g>
 </g>
 <g>
  <title>Layer 1</title>
  <g stroke="null" id="svg_7">
   <g stroke="null" transform="matrix(3.532071638839327,0,0,3.569578870509908,-46.92956842220883,-30.215300520191704) " id="svg_5">
    <path fill="#053b18" stroke="null" id="svg_6" d="m49.206922,23.46021l77.92,0c6.15,0 11.75,2.53 15.82,6.6c4.11,4.11 6.67,9.8 6.67,16.06l0,61.96c0,6.26 -2.55,11.94 -6.67,16.06c-4.07,4.07 -9.67,6.6 -15.82,6.6l-77.92,0c-6.15,0 -11.75,-2.53 -15.82,-6.6c-4.11,-4.12 -6.66,-9.8 -6.66,-16.06l0,-61.97c0,-6.26 2.55,-11.95 6.66,-16.06c4.07,-4.06 9.67,-6.59 15.82,-6.59l0,0zm18.9,28.62l11.68,0l0,14.29l12.25,-14.29l15.55,0l-13.81,14.22l14.44,23.62l-14.38,0l-7.98,-15.54l-6.07,6.32l0,9.21l-11.68,0l0,-37.83l0,0zm-36.84,47.6c0.79,3.18 2.34,6.02 4.44,8.29c3.09,3.33 7.35,5.4 12.05,5.4l80.83,0c0.19,0 0.38,0 0.57,-0.01l1.15,-0.08c4.01,-0.44 7.62,-2.39 10.33,-5.31c2.1,-2.26 3.65,-5.1 4.44,-8.28l0,-53.58c0,-4.85 -2,-9.28 -5.21,-12.49c-3.26,-3.26 -7.76,-5.28 -12.73,-5.28l-77.93,0c-4.97,0 -9.48,2.02 -12.73,5.28c-3.22,3.22 -5.21,7.64 -5.21,12.49l0,53.57l0,0z"/>
   </g>
  </g>
 </g>
</svg>