<svg width="100" height="100" xmlns="http://www.w3.org/2000/svg">
 <!-- Created with UXWing SVG Editor - https://uxwing.com/svg-icon-editor/ -->

 <g>
  <title>background</title>
  <rect fill="none" id="canvas_background" height="102" width="102" y="-1" x="-1"/>
  <g display="none" overflow="visible" y="0" x="0" height="100%" width="100%" id="canvasGrid">
   <rect fill="url(#gridpattern)" stroke-width="0" y="0" x="0" height="100%" width="100%"/>
  </g>
 </g>
 <g>
  <title>Layer 1</title>
  <style transform="matrix(0.024971805334708996,0,0,0.024971805334708996,0,0) " type="text/css">.st0{fill:#5AAFFF;}
	.st1{fill:#0084FF;}</style>
  <style transform="matrix(0.0009525987034190303,0,0,0.0009525987034190303,0,0) " type="text/css">.st0{fill:#5AAFFF;}
	.st1{fill:#0084FF;}</style>
  <style transform="matrix(0.0009525987034190303,0,0,0.0009525987034190303,0,0) " type="text/css">.st0{fill:#5AAFFF;}
	.st1{fill:#0084FF;}</style>
  <path stroke="null" id="svg_67" d="m41.806074,37.370713c0.034014,7.590312 0.068027,15.180624 0.102041,22.773029c4.337464,-0.14645 7.826069,-4.916547 8.099656,-10.590452c0.301685,-6.263891 -3.388043,-12.067509 -8.201697,-12.182577z" class="st0"/>
  <path stroke="null" id="svg_68" d="m59.191424,37.544361c-4.443941,-0.094147 -8.135149,5.050445 -8.141064,11.314335c-0.005915,6.286904 3.701559,11.452417 8.160289,11.343625c-0.005915,-7.552654 -0.011831,-15.105307 -0.019225,-22.657961z" class="st1"/>
  <rect stroke="null" transform="matrix(0.14788490606060306,0,0,0.2092147807168796,-12896.31787432459,-10899.777759418293) " id="svg_69" height="28.21" width="117.7" class="st0" y="52239.510874" x="87487.792318"/>
  <rect stroke="null" transform="matrix(0.14788490606060306,0,0,0.2092147807168796,-12896.31787432459,-10899.777759418293) " id="svg_70" height="28.21" width="117.7" class="st1" y="52398.100874" x="87487.792318"/>
 </g>
</svg>