<?xml version="1.0" encoding="utf-8"?>
<!-- Generator: Adobe Illustrator 23.0.3, SVG Export Plug-In . SVG Version: 6.00 Build 0)  -->
<svg version="1.1" id="Layer_1" xmlns="http://www.w3.org/2000/svg" xmlns:xlink="http://www.w3.org/1999/xlink" x="0px" y="0px"
	 viewBox="0 0 1080 1080" style="enable-background:new 0 0 1080 1080;" xml:space="preserve">
<style type="text/css">
	.st0{fill:#5AAFFF;}
	.st1{fill:#0084FF;}
</style>
<path class="st0" d="M485.87,454.7c0.23,36.28,0.46,72.56,0.69,108.85c29.33-0.7,52.92-23.5,54.77-50.62
	C543.37,482.99,518.42,455.25,485.87,454.7z"/>
<path class="st1" d="M603.43,455.53c-30.05-0.45-55.01,24.14-55.05,54.08c-0.04,30.05,25.03,54.74,55.18,54.22
	C603.52,527.73,603.48,491.63,603.43,455.53z"/>
<rect x="485.87" y="417.08" class="st0" width="117.7" height="28.21"/>
<rect x="485.87" y="575.67" class="st1" width="117.7" height="28.21"/>
<g>
	<path d="M146.54,552.9v-85.81h16.02v39.65l28.7-39.65h18.38l-24.15,31.29l28.18,54.52h-18.38l-20.57-40.63l-12.16,15.5v25.13
		H146.54z"/>
	<path d="M253.15,552.9l-1.27-5.42c-2.81,2.04-5.74,3.56-8.82,4.58c-3.07,1.02-6.28,1.53-9.62,1.53c-5.15,0-9.19-1.46-12.13-4.38
		c-2.94-2.92-4.41-6.95-4.41-12.1c0-6.76,2.83-12.09,8.5-15.99c5.67-3.9,14.53-6.6,26.59-8.1v-4.84c0-2.27-0.76-4.01-2.28-5.24
		c-1.52-1.23-3.68-1.84-6.48-1.84c-2.81,0-5.35,0.6-7.64,1.79c-2.29,1.19-4.26,2.96-5.91,5.3l-9.91-6.28c2.57-4,5.84-7,9.8-9.02
		c3.96-2.02,8.59-3.03,13.89-3.03c7.15,0,12.72,1.61,16.71,4.84c3.99,3.23,5.99,7.72,5.99,13.48v36.36c0,0.96,0.08,2.12,0.23,3.49
		c0.15,1.36,0.38,2.99,0.69,4.87H253.15z M251.54,522.82c-7.03,0.96-12.16,2.49-15.39,4.58c-3.23,2.09-4.84,4.93-4.84,8.5
		c0,2.11,0.58,3.75,1.73,4.9c1.15,1.15,2.78,1.73,4.9,1.73c2.31,0,4.58-0.54,6.83-1.61c2.25-1.07,4.5-2.71,6.77-4.9V522.82z"/>
	<path d="M281.5,552.9v-85.81h14.64v85.81H281.5z"/>
	<path d="M328.12,534.34c0,3,0.42,4.95,1.27,5.85c0.84,0.9,2.42,1.35,4.73,1.35c0.92,0,1.9-0.04,2.94-0.12
		c1.04-0.08,2.07-0.19,3.11-0.35v12.04c-1.61,0.35-3.47,0.61-5.56,0.81c-2.09,0.19-4.29,0.29-6.6,0.29c-5.03,0-8.71-1.16-11.04-3.49
		c-2.33-2.32-3.49-6-3.49-11.04v-36.59h-8.01v-12.04h8.01v-19.82h14.64v19.82h12.04v12.04h-12.04V534.34z"/>
	<path d="M396.47,540.74c-2.34,4.38-5.61,7.69-9.8,9.94c-4.19,2.25-9.14,3.37-14.87,3.37c-8.26,0-14.69-2.8-19.31-8.41
		c-4.61-5.61-6.92-13.46-6.92-23.57c0-10.1,2.3-18,6.89-23.68c4.59-5.68,10.96-8.53,19.1-8.53c8.11,0,14.4,2.75,18.87,8.24
		c4.47,5.49,6.71,13.22,6.71,23.17c0,0.35-0.02,0.87-0.06,1.58c-0.04,0.71-0.06,1.24-0.06,1.58l-37.05,0.06
		c0.08,5.84,1.21,10.23,3.4,13.17c2.19,2.94,5.44,4.41,9.74,4.41c2.69,0,5.02-0.62,7-1.87c1.98-1.25,3.85-3.27,5.62-6.08
		L396.47,540.74z M360.22,513.94h22.59c0-4.11-1-7.32-3-9.62c-2-2.31-4.75-3.46-8.24-3.46c-3.3,0-5.95,1.14-7.92,3.43
		C361.67,506.58,360.53,509.79,360.22,513.94z"/>
	<path d="M403.21,541.66l9.91-7.78c2.34,3.04,4.67,5.27,6.97,6.71s4.71,2.16,7.2,2.16c2.65,0,4.74-0.61,6.28-1.84
		c1.54-1.23,2.31-2.9,2.31-5.01c0-3.11-3.25-5.86-9.74-8.24c-0.69-0.27-1.21-0.48-1.56-0.63c-7.72-2.92-12.88-5.74-15.47-8.47
		c-2.59-2.73-3.89-6.26-3.89-10.6c0-5.3,1.97-9.64,5.91-13.02c3.94-3.38,9.06-5.07,15.36-5.07c4.23,0,8.04,0.77,11.44,2.31
		c3.4,1.54,6.54,3.92,9.42,7.15l-9.22,8.01c-2-2.11-3.99-3.68-5.96-4.7c-1.98-1.02-4.01-1.53-6.08-1.53c-2.46,0-4.39,0.55-5.79,1.64
		c-1.4,1.09-2.1,2.58-2.1,4.47c0,2.31,3.25,4.67,9.74,7.09c1.73,0.65,3.09,1.17,4.09,1.56c6.57,2.54,11.04,5.22,13.43,8.04
		c2.38,2.82,3.57,6.6,3.57,11.32c0,5.73-1.97,10.33-5.91,13.8c-3.94,3.48-9.17,5.22-15.7,5.22c-5.11,0-9.61-1.01-13.48-3.03
		C410.05,549.18,406.48,546,403.21,541.66z"/>
</g>
<g>
	<path d="M654.1,552.9l-22.07-85.81h15.79l12.27,49.33c0.46,1.88,0.99,4.48,1.58,7.78c0.6,3.3,1.2,7.11,1.82,11.41
		c0.27-4.3,1.23-9.74,2.88-16.31c0.27-1.11,0.46-1.92,0.58-2.42l12.51-49.79h13.83l11.87,49.33c0.46,1.88,0.99,4.48,1.58,7.78
		c0.59,3.3,1.22,7.13,1.87,11.47c0.23-2.8,0.61-5.75,1.15-8.85c0.54-3.09,1.25-6.41,2.13-9.94l12.51-49.79h15.85l-22.07,85.81
		h-17.86l-10.72-42.93c-0.96-4.03-1.73-7.57-2.31-10.6c-0.58-3.03-0.98-5.88-1.21-8.53c-0.54,3.96-1.09,7.55-1.67,10.78
		s-1.13,5.92-1.67,8.07l-10.95,43.22H654.1z"/>
	<path d="M775.75,552.9l-1.27-5.42c-2.8,2.04-5.74,3.56-8.82,4.58c-3.07,1.02-6.28,1.53-9.62,1.53c-5.15,0-9.19-1.46-12.13-4.38
		c-2.94-2.92-4.41-6.95-4.41-12.1c0-6.76,2.83-12.09,8.5-15.99c5.67-3.9,14.53-6.6,26.59-8.1v-4.84c0-2.27-0.76-4.01-2.28-5.24
		c-1.52-1.23-3.68-1.84-6.48-1.84c-2.8,0-5.35,0.6-7.64,1.79c-2.29,1.19-4.26,2.96-5.91,5.3l-9.91-6.28c2.57-4,5.84-7,9.8-9.02
		c3.96-2.02,8.59-3.03,13.89-3.03c7.15,0,12.72,1.61,16.71,4.84c4,3.23,5.99,7.72,5.99,13.48v36.36c0,0.96,0.08,2.12,0.23,3.49
		c0.15,1.36,0.38,2.99,0.69,4.87H775.75z M774.13,522.82c-7.03,0.96-12.16,2.49-15.39,4.58c-3.23,2.09-4.84,4.93-4.84,8.5
		c0,2.11,0.58,3.75,1.73,4.9c1.15,1.15,2.78,1.73,4.9,1.73c2.31,0,4.58-0.54,6.83-1.61c2.25-1.07,4.5-2.71,6.77-4.9V522.82z"/>
	<path d="M798.91,541.66l9.91-7.78c2.34,3.04,4.67,5.27,6.97,6.71c2.31,1.44,4.71,2.16,7.2,2.16c2.65,0,4.74-0.61,6.28-1.84
		c1.54-1.23,2.31-2.9,2.31-5.01c0-3.11-3.25-5.86-9.74-8.24c-0.69-0.27-1.21-0.48-1.56-0.63c-7.72-2.92-12.88-5.74-15.47-8.47
		c-2.59-2.73-3.89-6.26-3.89-10.6c0-5.3,1.97-9.64,5.91-13.02c3.94-3.38,9.06-5.07,15.36-5.07c4.23,0,8.04,0.77,11.44,2.31
		c3.4,1.54,6.54,3.92,9.42,7.15l-9.22,8.01c-2-2.11-3.99-3.68-5.96-4.7c-1.98-1.02-4.01-1.53-6.08-1.53c-2.46,0-4.39,0.55-5.79,1.64
		c-1.4,1.09-2.1,2.58-2.1,4.47c0,2.31,3.25,4.67,9.74,7.09c1.73,0.65,3.09,1.17,4.09,1.56c6.57,2.54,11.04,5.22,13.43,8.04
		c2.38,2.82,3.57,6.6,3.57,11.32c0,5.73-1.97,10.33-5.91,13.8c-3.94,3.48-9.17,5.22-15.7,5.22c-5.11,0-9.6-1.01-13.48-3.03
		C805.75,549.18,802.18,546,798.91,541.66z"/>
	<path d="M850.84,541.66l9.91-7.78c2.34,3.04,4.67,5.27,6.97,6.71c2.31,1.44,4.71,2.16,7.2,2.16c2.65,0,4.74-0.61,6.28-1.84
		c1.54-1.23,2.31-2.9,2.31-5.01c0-3.11-3.25-5.86-9.74-8.24c-0.69-0.27-1.21-0.48-1.56-0.63c-7.72-2.92-12.88-5.74-15.47-8.47
		c-2.59-2.73-3.89-6.26-3.89-10.6c0-5.3,1.97-9.64,5.91-13.02c3.94-3.38,9.06-5.07,15.36-5.07c4.23,0,8.04,0.77,11.44,2.31
		c3.4,1.54,6.54,3.92,9.42,7.15l-9.22,8.01c-2-2.11-3.99-3.68-5.96-4.7c-1.98-1.02-4.01-1.53-6.08-1.53c-2.46,0-4.39,0.55-5.79,1.64
		c-1.4,1.09-2.1,2.58-2.1,4.47c0,2.31,3.25,4.67,9.74,7.09c1.73,0.65,3.09,1.17,4.09,1.56c6.57,2.54,11.04,5.22,13.43,8.04
		c2.38,2.82,3.57,6.6,3.57,11.32c0,5.73-1.97,10.33-5.91,13.8c-3.94,3.48-9.17,5.22-15.7,5.22c-5.11,0-9.6-1.01-13.48-3.03
		C857.67,549.18,854.1,546,850.84,541.66z"/>
	<path d="M954.45,540.74c-2.34,4.38-5.61,7.69-9.8,9.94c-4.19,2.25-9.14,3.37-14.87,3.37c-8.26,0-14.69-2.8-19.31-8.41
		c-4.61-5.61-6.92-13.46-6.92-23.57c0-10.1,2.29-18,6.89-23.68c4.59-5.68,10.96-8.53,19.1-8.53c8.11,0,14.4,2.75,18.87,8.24
		c4.47,5.49,6.71,13.22,6.71,23.17c0,0.35-0.02,0.87-0.06,1.58c-0.04,0.71-0.06,1.24-0.06,1.58l-37.05,0.06
		c0.08,5.84,1.21,10.23,3.4,13.17c2.19,2.94,5.44,4.41,9.74,4.41c2.69,0,5.02-0.62,7-1.87c1.98-1.25,3.85-3.27,5.62-6.08
		L954.45,540.74z M918.2,513.94h22.59c0-4.11-1-7.32-3-9.62c-2-2.31-4.75-3.46-8.24-3.46c-3.3,0-5.95,1.14-7.92,3.43
		C919.65,506.58,918.51,509.79,918.2,513.94z"/>
	<path d="M966.38,552.9v-61.83h13.95v10.26c2-3.76,4.28-6.6,6.86-8.5c2.57-1.9,5.4-2.85,8.47-2.85c0.54,0,0.93,0.01,1.18,0.03
		c0.25,0.02,0.49,0.07,0.72,0.14v15.21h-0.69c-3.27,0-6.26,0.85-8.99,2.54c-2.73,1.69-4.94,4.07-6.63,7.15v37.86H966.38z"/>
</g>
</svg>
